<svg xmlns="http://www.w3.org/2000/svg" width="152.335" height="44.545" viewBox="0 0 152.335 44.545"><g transform="translate(0.002 0.141)"><path d="M-866.395-18485.033l-3.874-4.725v3.883c0,.229.084.535.842.535v.154h-2.121v-.154c.758,0,.907-.307.907-.535v-4.338l-.079-.074a.872.872,0,0,0-.828-.381v-.154h1.516l3.4,4.115v-3.428c0-.227-.153-.533-.911-.533v-.154h2.125v.154c-.758,0-.832.307-.832.533v5.1Zm1.363-2.971A2.87,2.87,0,0,1-862-18490.9c1.06,0,1.735.6,1.967,0h.153l.07,1.748h-.149a1.964,1.964,0,0,0-1.972-1.445c-1.437,0-2.042,1.219-2.042,2.664a2.236,2.236,0,0,0,2.195,2.516,2.339,2.339,0,0,0,.991-.232c.219-.074.219-.148.219-.377v-1.3c0-.455,0-.764-.758-.764v-.152h2.274v.152c-.6,0-.674.309-.674.764v1.674a5.749,5.749,0,0,1-2.2.609A2.984,2.984,0,0,1-865.032-18488Zm-24.935,0a2.814,2.814,0,0,1,2.948-2.893c1.214,0,1.669.688,1.972,0h.153l.079,1.906h-.232a1.814,1.814,0,0,0-1.888-1.6c-1.446,0-2.051,1.139-2.051,2.66a2.269,2.269,0,0,0,2.121,2.516,2.7,2.7,0,0,0,2.051-.916l.154.232a3.291,3.291,0,0,1-2.274.986A2.748,2.748,0,0,1-889.967-18488Zm-18.876,2.893h-.149l-.3-1.828h.228a1.849,1.849,0,0,0,1.739,1.525.925.925,0,0,0,.986-1.219c-.377-1.219-2.725-1.3-2.725-2.893a1.47,1.47,0,0,1,1.59-1.371c.911,0,1.288.609,1.516,0h.154l.223,1.828h-.223a1.693,1.693,0,0,0-1.6-1.447c-.53,0-.907.229-.907.758s.53.842.907,1.07c1.214.684,1.972,1.064,1.972,2.055a1.611,1.611,0,0,1-1.818,1.521C-908.159-18485.111-908.764-18485.721-908.843-18485.111Zm-28.19-2.209v-2.818c0-.229-.149-.451-.758-.451v-.158h2.348v.158c-.6,0-.758.229-.758.451v2.818c0,1.371.456,1.828,1.516,1.828,1.59,0,1.669-1.141,1.669-1.977v-2.67c0-.229-.153-.451-.837-.451v-.158h1.972v.158c-.684,0-.758.229-.758.451v2.67c0,.99-.153,1.674-1.06,2.129a2.72,2.72,0,0,1-1.135.229C-936.428-18485.111-937.033-18485.795-937.033-18487.32Zm-6.366-.684a2.814,2.814,0,0,1,2.958-2.893c1.135,0,1.59.684,1.893,0h.149l.079,1.9h-.228a1.8,1.8,0,0,0-1.818-1.521c-1.442,0-2.046,1.061-2.046,2.586a2.18,2.18,0,0,0,2.046,2.438,2.628,2.628,0,0,0,2.046-.838l.154.148a3.209,3.209,0,0,1-2.274,1.07A2.772,2.772,0,0,1-943.4-18488Zm-9.547,2.893h-.228l-.228-1.828h.149a2.01,2.01,0,0,0,1.818,1.525.986.986,0,0,0,.986-1.219c-.377-1.219-2.73-1.3-2.73-2.893a1.45,1.45,0,0,1,1.521-1.371c.907,0,1.363.609,1.59,0h.149l.153,1.828h-.149a1.762,1.762,0,0,0-1.6-1.447c-.53,0-.907.229-.907.758s.53.842.907,1.07c1.139.684,1.972,1.064,1.972,2.055a1.658,1.658,0,0,1-1.818,1.521C-952.267-18485.111-952.872-18485.721-952.946-18485.111Zm-40.169-2.205v-2.818c0-.232-.153-.533-.758-.533v-.154h2.423v.154c-.6,0-.758.307-.758.533v2.818c0,1.367.381,1.9,1.516,1.9,1.6,0,1.669-1.219,1.669-2.055v-2.666c0-.227-.153-.533-.832-.533v-.154h1.967v.154c-.679,0-.758.307-.758.533v2.666c0,.99-.149,1.752-1.135,2.209a4.039,4.039,0,0,1-1.06.148C-992.432-18485.111-993.116-18485.795-993.116-18487.316Zm134.366,2.131v-.154c.609,0,.758-.307.758-.535v-4.264c0-.229-.149-.529-.758-.529v-.154h4.627v1.219h-.149a1.074,1.074,0,0,0-1.06-.838H-856.7c-.232,0-.381.08-.381.307v1.828h1.209c.609,0,1.06-.152,1.06-.842h.232v1.98h-.232c0-.607-.451-.762-1.06-.762h-1.209v2.055c0,.154,0,.309.232.309h1.13a1.621,1.621,0,0,0,1.828-1.066h.223l-.386,1.447Zm-15.3,0v-.148c.758-.08.758-.232.386-.992l-.307-.687h-2.269a4.391,4.391,0,0,0-.456,1.293c0,.307.3.387.6.387v.148h-1.749v-.148c.535-.08.758-.689,1.144-1.525l1.739-4.037h.149l2.121,4.721c.232.307.386.842.842.842v.148Zm-2.042-2.209h2.042l-1.06-2.283Zm-4.557,2.209v-.148c.609,0,.758-.309.758-.535v-2.057h-2.646v2.057c0,.227.153.535.758.535v.148h-2.423v-.148c.674,0,.753-.309.753-.535v-4.266c0-.227-.079-.533-.753-.533v-.154h2.423v.154c-.6,0-.758.307-.758.533v1.9h2.646v-1.9c0-.232-.149-.533-.758-.533v-.154h2.437v.154c-.609,0-.758.307-.758.533v4.266c0,.227.149.535.758.535v.148Zm-12.426,0v-.154c.6,0,.758-.152.6-.455a8.574,8.574,0,0,0-.451-.764l-.758-1.064-.981,1.145a3.237,3.237,0,0,0-.456.684c-.153.232.07.461.6.461v.148h-2.051v-.148c.535,0,.911-.535,1.367-1.07l1.293-1.521-.911-1.3c-.684-1.064-.99-1.367-1.6-1.445v-.154h2.576v.154c-.526,0-.6.078-.6.307a4.464,4.464,0,0,0,.758,1.293l.3.455.907-1.064c.154-.154.456-.457.456-.684,0-.307-.456-.307-.6-.307v-.154h2.051v.154c-.609,0-1.06.609-1.367.91l-1.209,1.451,1.665,2.209c.372.605.609.758.981.758v.154Zm-8.859,0v-.154c.6,0,.758-.307.758-.535v-4.264c0-.229-.153-.529-.758-.529v-.154h4.613v1.219h-.149c-.153-.455-.372-.838-.981-.838H-899.9c-.219,0-.372.08-.372.307v1.828h1.214c.6,0,1.06-.152,1.06-.842h.223v1.98H-898c0-.607-.456-.762-1.06-.762h-1.214v2.055c0,.154.07.309.223.309h1.139a1.609,1.609,0,0,0,1.818-1.066h.223l-.372,1.447Zm-58.664,0v-.148c.753,0,.907-.309.907-.535v-4.266c0-.232-.153-.533-.907-.533v-.154h2.651v.154c-.758,0-.832.307-.832.533v4.266c0,.227.074.535.832.535v.148Zm-5.762,0v-.148c.684,0,.832-.309.832-.535v-4.266c0-.232-.149-.533-.832-.533v-.154h2.348c1.288,0,2.348.381,2.348,1.451,0,.684-.451,1.064-1.135,1.219.758.148,1.442.6,1.442,1.445,0,.99-.911,1.521-2.274,1.521Zm1.665-.764c0,.3.153.457.758.457.911,0,1.6-.3,1.6-1.293s-1.065-1.145-1.9-1.145h-.456Zm0-4.264v1.906h.758c.911,0,1.367-.381,1.367-1.068a1.025,1.025,0,0,0-.986-1.066c-.276-.023-.494-.041-.663-.041C-964.561-18490.482-964.7-18490.416-964.7-18490.213Zm-4.241,5.027v-.148c.758-.08.758-.232.377-.992l-.3-.687h-2.274a4.528,4.528,0,0,0-.456,1.293c0,.307.307.387.609.387v.148h-1.744v-.148c.53-.08.758-.689,1.135-1.525l1.744-4.037h.154l2.2,4.721c.149.307.3.842.753.842v.148Zm-2.046-2.209h2.046l-1.06-2.283Zm-4.474,2.209v-.148c.609,0,.758-.309.758-.535v-2.057h-2.651v2.057c0,.227.149.535.758.535v.148h-2.427v-.148c.6,0,.758-.309.758-.535v-4.266c0-.227-.153-.533-.758-.533v-.154h2.427v.154c-.609,0-.758.307-.758.533v1.9h2.651v-1.9c0-.232-.149-.533-.758-.533v-.154h2.427v.154c-.684,0-.758.307-.758.533v4.266c0,.227.074.535.758.535v.148Zm-9.854,0v-.154c.609,0,.758-.307.758-.535v-4.264c0-.229-.149-.529-.758-.529v-.154h2.2c2.274,0,3.637.916,3.637,2.818,0,1.754-1.209,2.818-3.562,2.818Zm1.669-4.873v4.109a.357.357,0,0,0,.377.383c1.823.078,2.809-.838,2.809-2.437a2.459,2.459,0,0,0-2.73-2.512C-983.569-18490.516-983.643-18490.441-983.643-18490.059Zm-16.067,4.873v-.148c.758,0,.832-.309.832-.535v-4.266c0-.232-.074-.533-.832-.533v-.154h2.348c1.363,0,2.427.381,2.427,1.451,0,.684-.456,1.064-1.139,1.213.758.154,1.442.609,1.442,1.451,0,.99-.911,1.521-2.274,1.521Zm1.744-.764c0,.3.074.457.758.457.907,0,1.59-.3,1.59-1.293s-1.06-1.145-1.893-1.145h-.456Zm0-4.264v1.906h.758c.832,0,1.362-.381,1.362-1.068a1.022,1.022,0,0,0-.986-1.066c-.276-.023-.494-.041-.661-.041C-997.831-18490.482-997.966-18490.416-997.966-18490.213Zm-4.246,5.027v-.148c.758-.08.758-.232.381-.992l-.307-.687h-2.269a4.391,4.391,0,0,0-.456,1.293c0,.307.228.387.53.387v.148H-1006v-.148c.53-.08.758-.689,1.065-1.525l1.818-4.037h.149l2.125,4.721c.149.307.377.842.832.842v.148Zm-2.046-2.209h1.972l-.986-2.283Zm89.43,2.135v-.154c.609,0,.758-.232.758-.461v-4.264c0-.229-.149-.451-.758-.451v-.158h4.622v1.145h-.228a.933.933,0,0,0-.986-.838h-1.363a.351.351,0,0,0-.381.3v1.832h1.214c.53,0,1.06-.152,1.06-.762h.154v1.9h-.154c0-.607-.53-.762-1.06-.762h-1.214v2.055c0,.154,0,.309.228.309h1.139a1.648,1.648,0,0,0,1.818-1.066h.228l-.381,1.373Zm-2.8,0v-.154c.684,0,.837-.232.837-.461v-4.264c0-.229-.153-.451-.837-.451v-.158h2.576v.158c-.758,0-.832.229-.832.451v4.264c0,.232.074.461.832.461v.154Zm-4.013,0v-.154c.6,0,.753-.232.753-.461v-4.566h-.6c-.684,0-1.06,0-1.214,1.066h-.228l.079-1.373h4.85l.074,1.373h-.228c-.153-1.066-.6-1.066-1.214-1.066h-.6v4.566c0,.232.074.461.758.461v.154Zm-4.171,0v-.154c.758,0,.832-.232.832-.461v-4.264c0-.229-.074-.451-.832-.451v-.158h2.576v.158c-.684,0-.832.229-.832.451v4.264c0,.232.149.461.832.461v.154Zm-1.669,0-2.046-2.516h-.451v1.9c0,.232.149.461.758.461v.154h-2.348v-.154c.6,0,.679-.232.679-.461v-4.264c0-.229-.074-.451-.679-.451v-.158h2.269c1.442,0,2.274.461,2.274,1.451,0,.912-.758,1.293-1.59,1.367l1.744,2.055a.946.946,0,0,0,.832.461v.154Zm-2.5-4.8v1.98c1.209-.08,2.046-.307,2.046-1.219,0-.842-.609-1.145-1.442-1.145C-929.909-18490.441-929.983-18490.441-929.983-18490.059Zm-18.871,4.8v-.154c.6,0,.758-.232.758-.461v-4.264c0-.229-.154-.451-.758-.451v-.158h4.543v1.145h-.149c-.154-.455-.381-.838-.986-.838h-1.442c-.149,0-.377.154-.377.3v1.832h1.214c.6,0,1.135-.152,1.135-.762h.153v1.9h-.153c0-.607-.53-.762-1.135-.762h-1.214v2.055c0,.154.074.309.228.309h1.135a1.609,1.609,0,0,0,1.818-1.066h.228l-.377,1.373Zm40.393-9.748v-.232c1.135,0,1.288-.377,1.288-.758v-32.59c0-.307-.154-.687-1.288-.687v-.3h3.864v.3c-1.06,0-1.209.385-1.209.688v32.59c0,.381.149.758,1.209.758v.232Zm41.764-1.3a1.86,1.86,0,0,1-.911-.3.16.16,0,0,1,.153-.152,2.044,2.044,0,0,1,.451.078,2.2,2.2,0,0,0,.456.074,2.7,2.7,0,0,0,1.437-.687c.684-.531.986-.986.986-1.373v-.377h-.079a.95.95,0,0,1-.372.684c-.153.154-.307.154-.609.154s-.456-.078-.535-.232a1.5,1.5,0,0,1-.149-.605v-.307c0-.227.149-.455.451-.836.307-.457.535-.764.842-.764.149,0,.3.154.451.383a5.308,5.308,0,0,1,.307.533.609.609,0,0,0,.07.3,1.619,1.619,0,0,1,.079.609,4.327,4.327,0,0,1-.456,1.9c-.381.762-.837,1.145-1.442,1.145A4.709,4.709,0,0,1-866.7-18496.3Zm1.432-3.428c-.153.074-.223.154-.223.3,0,.078.07.152.3.152a.429.429,0,0,0,.3.08,1.292,1.292,0,0,0,.456-.08.464.464,0,0,0-.233-.455.384.384,0,0,0-.3-.152C-865.032-18499.885-865.111-18499.807-865.265-18499.732Zm-25.911,3.125c-.307.229-.456.377-.386.377a3.508,3.508,0,0,1-.372-.148,2.364,2.364,0,0,1-.386-.3c.153-.158.3-.381.535-.613a2.547,2.547,0,0,0,.679.381,1.552,1.552,0,0,1,.381-.381l.758.381a2.047,2.047,0,0,1-.535.684Zm21.215-.078a5.11,5.11,0,0,1-.911-.457v-.152h.084a1.189,1.189,0,0,1,.456.152,2.6,2.6,0,0,0,.674.074,2.026,2.026,0,0,0,1.139-.609c.609-.529.911-.91.911-1.213a1.622,1.622,0,0,0-.456-.613,1.372,1.372,0,0,0-.535-.381l.386-.986a1.64,1.64,0,0,1,.758.836,1.736,1.736,0,0,1,.3.99,3.677,3.677,0,0,1-.456,1.6c-.386.684-.758,1.064-1.293,1.064A9.66,9.66,0,0,1-869.962-18496.686Zm-7.273-1.141v-.227c.079-.3.149-.535.228-.838a4.675,4.675,0,0,0,.223-.609,1.41,1.41,0,0,1,.307-.381c.079,0,.079,0,.079.074,0,0-.079.232-.154.535a2.122,2.122,0,0,0-.232.762.949.949,0,0,0,.535.838,1.623,1.623,0,0,0,.911.229.261.261,0,0,0,.223-.08,2.987,2.987,0,0,0,1.363-.3,3.1,3.1,0,0,0,.688-.381,2.423,2.423,0,0,0-.232-.838,1.663,1.663,0,0,1-.609.383h-.3a1.336,1.336,0,0,1-.525-.154c-.233-.148-.381-.307-.381-.535a2.53,2.53,0,0,1,.381-1.064c.3-.529.609-.836.911-.836.372,0,.674.381.977,1.139a5.215,5.215,0,0,1,.237,1.3v.307c-.084.229-.153.605-.307,1.066-.079,0-.079.078-.232.152a3.611,3.611,0,0,1-.526.3,8.293,8.293,0,0,1-1.06.455,3.478,3.478,0,0,1-.907.08C-876.7-18496.453-877.235-18496.914-877.235-18497.826Zm2.879-2.361c-.074.074-.153.152-.153.227,0,0,.079.076.153.154s.149.074.233.154h.372a.578.578,0,0,0,.233-.08.825.825,0,0,1-.154-.229s-.079-.074-.232-.227c-.07-.154-.149-.154-.219-.154S-874.277-18500.342-874.356-18500.187Zm-51.763,2.668v-.842c2.425,0,3.325-.416,3.316-1.324a2.535,2.535,0,0,0-.21-.879,22.07,22.07,0,0,0-2.245-3.84l-.029-.043-3.864-5.711-4.776,6.092a24.111,24.111,0,0,0-2.423,3.273c-.609,1.219.456,2.438,3.106,2.438v.836H-943.4v-.836c2.5,0,4.395-2.512,6.669-5.408l6.52-7.994-4.474-6.547c-3.637-5.33-5-7.236-8.185-7.311v-.838h13.114v.832c-2.73,0-3.26.307-3.26,1.373,0,1.3,3.181,5.789,4.013,6.928l1.516,2.135,4.548-5.637c.684-.762,2.121-2.287,2.121-3.426,0-1.373-2.195-1.373-3.106-1.373v-.832h10.384v.832c-3.106,0-5.534,2.9-6.822,4.5l-6.058,7.535,8.1,11.572q.323.451.619.834c1.611,2.084,2.7,2.756,4.459,2.82v.842Zm-46.838,0v-.838c3.106,0,3.79-1.445,3.79-2.664v-21.926c0-1.3-.684-2.67-3.79-2.67v-.832h11.217c11.068,0,17.811,4.721,17.811,14.541,0,8.832-5.836,14.389-17.508,14.389Zm8.185-25.125v21.168a1.98,1.98,0,0,0,2.125,2.129c8.863.387,14.016-4.412,14.016-12.561,0-8.527-5.608-12.945-13.639-12.945C-964.316-18524.857-964.772-18524.705-964.772-18522.648Zm-22.28,25.125v-.838c3.711-.227,3.637-.99,1.967-4.873l-1.516-3.729h-11.44c-.535,1.674-2.353,5.1-2.353,6.775,0,1.445,1.516,1.826,2.958,1.826v.838H-1006v-.838c2.655-.227,3.79-3.426,5.608-7.691l8.794-21.014h.911l10.607,24.441c.758,1.754,1.665,4.344,4.092,4.264v.838Zm-10.235-11.268h10.008l-5-12.031Zm115.118,10.813a.645.645,0,0,0-.451-.232h-2.8l-.456-4.488a1.33,1.33,0,0,0,.153-.232c.149-.154.3-.381.526-.609,0,.229.079.535.079.916.153,1.6.3,2.66.372,3.273a.076.076,0,0,0,.084.074c.07,0,.07,0,.223.08.079,0,.079.074.149.074h1.144v-.307a2.219,2.219,0,0,0-.084-.605,14.174,14.174,0,0,0-.372-1.678c0-.074,0-.074-.153-.148-.079-.074-.149-.154-.149-.154a5.776,5.776,0,0,1,.3-.535c.149-.3.3-.529.372-.529h.084a.9.9,0,0,0,.07.381,2.344,2.344,0,0,0,.99.684,1.155,1.155,0,0,0-.232.455c-.153.229-.223.383-.377.461a5.859,5.859,0,0,0,.074.838,1.824,1.824,0,0,0,.079.758c.07.074.3.227.6.459.377.154.525.3.525.457a2.746,2.746,0,0,1-.149.529,2.837,2.837,0,0,1-.223.457Zm19.178.152v-.074c.233-.074.837-.227,1.818-.609a6.446,6.446,0,0,0,1.818-.836,2.229,2.229,0,0,0-1.284-1.6c0,.074-.079.148-.079.3-.3-.152-.828-.381-1.516-.684a.243.243,0,0,0-.07-.152v-.3a3.144,3.144,0,0,1,.149-.842c0-.074.074-.152.074-.229h.149a.741.741,0,0,1,.3.076,5.386,5.386,0,0,0,.911.533,3.487,3.487,0,0,1,1.748,2.592c.149-.08.219-.229.451-.383.07-.152.153-.227.153-.307a4.82,4.82,0,0,0,.372-.836v-.838a.258.258,0,0,0-.07-.154v-.152a.3.3,0,0,1,.07-.229,1.913,1.913,0,0,1,.688-.6l.525,4.031h1.818v-.307a4.416,4.416,0,0,0-.07-.832c-.084-.387-.153-.916-.3-1.605l-.386-.3a7.713,7.713,0,0,1,.688-1.143.611.611,0,0,0,.07.381c.079,0,.232.154.535.381.223.154.456.229.688.381a1.026,1.026,0,0,0-.233.309,5.218,5.218,0,0,0-.535.613v.148l.233,1.674-.233,1.219h-3.032a6.065,6.065,0,0,0-.07-.99,2.143,2.143,0,0,0-.232-.986h-.07c-.153.3-.233.531-.386.838a3.317,3.317,0,0,1-.6.836,2.861,2.861,0,0,1-1.367.535c-.451.074-.907.148-1.363.229Zm-8.64-4.109c0-.08.153-.234.307-.609a3.63,3.63,0,0,0,.381-.609l.3,3.193a2.649,2.649,0,0,1-.535,1.754Zm-8.719,0c0-.08.153-.234.307-.609a5.13,5.13,0,0,0,.451-.609l.232,3.193a2.649,2.649,0,0,1-.535,1.754Zm-7.273,3.729H-890.2c-.149,0-.223-.078-.372-.232a.69.69,0,0,1-.232-.377l-.3.609h-8.105a.944.944,0,0,0-.232-.307,5.756,5.756,0,0,0-.149-.764,1.305,1.305,0,0,0-.307.461.586.586,0,0,1-.372.377l-1.442-.3v-.148c0,.074.079-.307.381-1.07,0-.152.223-.381.674-.607a1.772,1.772,0,0,0,.688-.457v-.152l-.079-.074a10.425,10.425,0,0,1,.535-.918c.07.689.223,1.6.456,2.893a.417.417,0,0,0,.372.154h.084v-.074h6.059v.074h1.669a2.215,2.215,0,0,1,.07-.535v-.455a7,7,0,0,0,.6-.684v.762a.89.89,0,0,0-.07.383c0,.227.223.455.6.529H-888c0-.148.07-.229.07-.3a5.611,5.611,0,0,0-.153-.836c-.07-.383-.149-.916-.3-1.6l-.372-.309a7.9,7.9,0,0,1,.674-1.139,3.04,3.04,0,0,0,.084.381c.07,0,.219.15.526.383.232.148.451.227.684.375a1.205,1.205,0,0,0-.233.309c0,.074-.219.227-.451.609-.07,0-.07.074-.07.152l.219,1.674-.219,1.219Zm-12.347-2.209a.923.923,0,0,1-.451.455c-.154.076-.3.154-.456.229a3.022,3.022,0,0,0,.674.229h.609v-.229a6.316,6.316,0,0,0-.223-.916C-899.9-18500.568-899.97-18500.568-899.97-18500.416Zm25.693-1.828c-.233.229-.381.383-.381.383a5.982,5.982,0,0,1-.758-.383,3.3,3.3,0,0,1,.535-.609,3.528,3.528,0,0,0,.674.383,4.7,4.7,0,0,1,.456-.383l.758.383a2.349,2.349,0,0,1-.456.535.07.07,0,0,1-.07.074A5.978,5.978,0,0,1-874.277-18502.244Zm-26.3-.3c-.232.223-.386.375-.386.375a3.384,3.384,0,0,1-.674-.375c.07-.154.3-.309.525-.609a1.132,1.132,0,0,0,.6.377,2.131,2.131,0,0,0,.456-.377l.688.455a.973.973,0,0,1-.307.3.572.572,0,0,1-.232.227A1.469,1.469,0,0,1-900.575-18502.545Zm40.007-.992v-.078c0-.074.084-.229.3-.377a3.819,3.819,0,0,1-.451-.152v-.383a.978.978,0,0,1,.684-.533l.074-.08c.232,0,.3.08.3.232,0,0,0,.074-.153.3,0-.074-.07-.074-.149-.148h-.154a.274.274,0,0,0-.223.074.157.157,0,0,0-.149.152c0,.074.219.154.6.154h.6a1.483,1.483,0,0,1-.149.381,1.62,1.62,0,0,0-1.06.455Zm-39.249-4.416c-.369.217-.521.367-.465.379a2.584,2.584,0,0,1-.679-.455c.3-.307.456-.455.456-.455.084,0,.153.074.3.229a.761.761,0,0,1,.3.148c.084,0,.153-.074.232-.148.154-.154.223-.229.223-.229s.232.148.688.455c-.3.3-.456.457-.535.457S-899.514-18507.727-899.817-18507.953Zm-.465.379.009,0A.013.013,0,0,1-900.281-18507.574Zm42.522-1.672a.812.812,0,0,1,.3-.3c.154-.154.223-.307.307-.307,0,0,.149.152.3.307a2.8,2.8,0,0,1,.372.3c0,.074-.07.227-.3.3-.153.154-.223.229-.3.229A4.4,4.4,0,0,1-857.759-18509.246Zm-37.137.529c-.07,0-.153-.074-.377-.229-.079-.074-.228-.152-.381-.3a5.62,5.62,0,0,1,.6-.689h.153s.233.154.688.535c.07,0,.07.074.07.154,0,0-.07.074-.153.148s-.223.152-.526.381Zm26.377-.148h-.233a5.612,5.612,0,0,1-.977-.381,1.073,1.073,0,0,1-.758-.457v-.078h.153a2.044,2.044,0,0,1,.451.078,2.229,2.229,0,0,1,.456.154.631.631,0,0,0,.372-.08,3.208,3.208,0,0,0,1.748-1.217c-.381,0-.758-.074-.99-.074a1.1,1.1,0,0,1-.372-.229.42.42,0,0,1-.233-.3v-.158a1.417,1.417,0,0,1,.149-.684c.153-.3.233-.535.307-.684a1.6,1.6,0,0,1,.535-.687.562.562,0,0,1,.372-.154h.084a.9.9,0,0,1,.372.381,4.108,4.108,0,0,1,.535,1.6h10.226a4.145,4.145,0,0,0-.609-1.139l.456-.842a2.481,2.481,0,0,1,.688,1.525c0,.229-.084.684-.153,1.447H-866.7a2.959,2.959,0,0,1-.386.836,2.01,2.01,0,0,1-.526.764,2.923,2.923,0,0,1-.535.381Zm.307-3.734c-.084.078-.153.154-.153.232a.237.237,0,0,0,.07.148.467.467,0,0,0,.456.229c0,.078.079.078.153.078a.357.357,0,0,0,.232-.078.07.07,0,0,0,.07-.074c0-.154-.07-.229-.07-.307a1.067,1.067,0,0,0-.232-.3c-.074-.08-.153-.154-.223-.154A.38.38,0,0,0-868.213-18512.6Zm-32.9,3.506a1.2,1.2,0,0,1-.6-.99,2.4,2.4,0,0,1,.535-1.445c.3-.531.6-.838.907-.912a.279.279,0,0,1-.079.229,2.1,2.1,0,0,0-.758,1.371.9.9,0,0,0,.6.838,2.4,2.4,0,0,0,.991.227,2.774,2.774,0,0,0,.758-.078,2.234,2.234,0,0,0,.679-.148c.079,0,.149-.08.3-.08l.079-.074a1.234,1.234,0,0,0-.837-.535c-.3,0-.526-.074-.828-.074l.526-1.07h3.939c.079-.074.079-.227.079-.455s0-.381.074-.455a3.017,3.017,0,0,1,.684-.842v.688c0,.074-.079.154-.079.307v.3c0,.074,0,.154.153.307a1.354,1.354,0,0,0,.228.154h18.42a.556.556,0,0,0,.223-.232h.079v-.154a1.77,1.77,0,0,1-.079-.529c0-.154-.07-.307-.07-.535-.084-.307-.153-.838-.3-1.445a.826.826,0,0,1-.153-.229v-.232a6.276,6.276,0,0,0,.525-.684h.079c.074.381.456.684.981.91v.08a3.829,3.829,0,0,1-.223.535c-.079.074-.079.148-.149.148a.288.288,0,0,1-.233.078,7.539,7.539,0,0,1,.079.992v.3a.8.8,0,0,1-.079.383c0,.152-.074.227-.074.307a4.138,4.138,0,0,1,.609-.307,6.665,6.665,0,0,1,1.214-.684,3.582,3.582,0,0,1,.753-.309.28.28,0,0,0,.153-.074c.223,0,.456.154.828.457a1.188,1.188,0,0,1,.535.762,2.283,2.283,0,0,0-.149.381c-.084.154-.233.457-.456.838a.972.972,0,0,1-.153.229h-22.893a.638.638,0,0,1-.3-.3,1.714,1.714,0,0,1-.149-.3,4.422,4.422,0,0,1-.307.605h-1.818c-.149.227-.3.529-.451.762a2.729,2.729,0,0,1-.526.684c-.084,0-.153.08-.232.08a10.09,10.09,0,0,1-1.135.381,2.647,2.647,0,0,1-.753.074A3.025,3.025,0,0,1-901.109-18509.094Zm27.744-3.273a8.3,8.3,0,0,0-.911.529h2.576l.07-.074a1.248,1.248,0,0,0-.219-.455,3.648,3.648,0,0,0-.539-.232h-.372A5.559,5.559,0,0,1-873.366-18512.367Zm18.638-2.209a1.287,1.287,0,0,1,.3-.609c.153-.307.3-.461.377-.613l.233,3.125a3.269,3.269,0,0,1-.456,1.828Zm-18.42.229c-.219-.154-.3-.229-.3-.307a1.471,1.471,0,0,1,.232-.3c.223-.158.307-.232.377-.232a1.249,1.249,0,0,1,.3.232c.232.229.3.3.3.381a.515.515,0,0,1-.3.229,1.313,1.313,0,0,1-.3.227A1.278,1.278,0,0,1-873.147-18514.348Zm17.964-2.209v-.08a.85.85,0,0,1,.3-.3c-.079-.08-.233-.08-.451-.229a.63.63,0,0,1,.07-.307.829.829,0,0,1,.6-.609h.079c.223,0,.307.074.307.232,0,0,0,.074-.153.3a.17.17,0,0,0-.154-.154h-.381c-.07.074-.154.154-.154.154,0,.148.233.227.609.227h.614c0,.08-.079.154-.163.3a1.842,1.842,0,0,0-1.06.461Zm-40.318-4.031c-.223-.076-.525-.154-.981-.309a2.056,2.056,0,0,1-.758-.455v-.074c0-.08.07-.08.153-.08a2.416,2.416,0,0,0,.451.154,2.157,2.157,0,0,0,.456.074.848.848,0,0,0,.377-.074,3.077,3.077,0,0,0,1.744-1.145c-.381-.078-.758-.078-.986-.148-.153,0-.223-.078-.377-.152-.154-.154-.233-.229-.233-.387v-.148a1.365,1.365,0,0,1,.153-.684c.149-.307.233-.535.3-.689a1.669,1.669,0,0,1,.535-.684.543.543,0,0,1,.372-.152l.084.074a.731.731,0,0,1,.372.307,4.387,4.387,0,0,1,.535,1.674h35.7c.154,0,.154-.152.223-.381v-.3a5.944,5.944,0,0,1,.758-.842c.079.08,0,.307-.07.609a6.932,6.932,0,0,0-.237.688.686.686,0,0,0,.386.229c.07,0,.07-.074.153-.074v.074h.674a4.224,4.224,0,0,1,.153-.609c0-.074.149-.227.3-.381.079-.074.233-.229.386-.381l-.237,1.064v.307h.758a.9.9,0,0,0-.07-.381v-.229c0-.074.07-.148.223-.381a2.631,2.631,0,0,0,.465-.529v1.445c0,.148-.079.3-.079.455a1.626,1.626,0,0,1-.307.531.077.077,0,0,1-.079.078l-1.214-.078a.887.887,0,0,0-.149-.229,1.923,1.923,0,0,1-.153.154c-.07.074-.07.152-.149.152h-.828v-.074h-.386a.274.274,0,0,1-.223-.074c-.079-.078-.149-.152-.149-.232-.233.232-.386.3-.456.3H-893.45a2.149,2.149,0,0,1-.386.842,2.116,2.116,0,0,1-.526.762,2.294,2.294,0,0,1-.535.383c-.149,0-.223.074-.372.074C-895.352-18520.514-895.422-18520.588-895.5-18520.588Zm.535-3.734c-.084.074-.153.152-.153.227a.3.3,0,0,0,.07.229,1.388,1.388,0,0,0,.456.229h.386a.07.07,0,0,1,.07-.076,1.673,1.673,0,0,0-.07-.381c-.084-.074-.153-.227-.232-.307a.279.279,0,0,0-.223-.074A.508.508,0,0,0-894.966-18524.322Zm-6.748,2.209v-.309a4.971,4.971,0,0,1,.232-.836,3.408,3.408,0,0,1,.219-.609c.084-.074.153-.229.3-.381.084,0,.084,0,.084.078a4.463,4.463,0,0,0-.153.531,2.641,2.641,0,0,0-.233.762.824.824,0,0,0,.539.838,1.467,1.467,0,0,0,.823.227h.307a9.721,9.721,0,0,0,1.363-.3c.233-.154.456-.309.688-.461a3.563,3.563,0,0,1-.233-.838,1.066,1.066,0,0,1-.609.387h-.3a1.789,1.789,0,0,1-.6-.158.576.576,0,0,1-.3-.531,2.969,2.969,0,0,1,.381-1.068c.3-.531.609-.838.911-.838.372,0,.674.387.907,1.145a3.552,3.552,0,0,1,.3,1.371v.229c-.079.229-.232.609-.381,1.064a1.911,1.911,0,0,1-.153.154,3.6,3.6,0,0,1-.525.307,5.874,5.874,0,0,1-1.139.455,3.128,3.128,0,0,1-.828.074C-901.179-18520.822-901.714-18521.277-901.714-18522.113Zm2.879-2.437a.966.966,0,0,1-.154.229l.154.152c.079.074.149.154.149.154h.386a.56.56,0,0,0,.3-.08c-.079,0-.079-.074-.153-.148,0-.078-.079-.158-.233-.307a.917.917,0,0,1-.219-.154C-898.687-18524.705-898.756-18524.631-898.835-18524.551Zm42.513.912s0,.078-.07.078Zm-41.676-2.586a2.015,2.015,0,0,1-.758-.381c-.233.227-.386.381-.386.381a3.523,3.523,0,0,1-.758-.381c.084-.154.307-.309.539-.609a3.837,3.837,0,0,0,.667.379c-.049-.012.107-.162.463-.379l.758.381a5.161,5.161,0,0,1-.456.609Zm-.688-.609Z" transform="translate(1006 18529.438)" fill="#fff"/></g></svg>