<svg xmlns="http://www.w3.org/2000/svg" width="115" height="59" viewBox="0 0 115 59"><g transform="translate(-645 -2143)"><rect width="115" height="59" transform="translate(645 2143)" fill="none"/><g transform="translate(789.534 1512.123)"><g transform="translate(-144.534 649.877)"><path d="M-11.716,763.586c-6.683,4.926-16.369,7.554-24.709,7.554a44.713,44.713,0,0,1-30.186-11.519c-.626-.566-.065-1.337.686-.9a60.753,60.753,0,0,0,30.2,8.009,60.054,60.054,0,0,0,23.037-4.711c1.131-.481,2.077.741.971,1.562" transform="translate(83.06 -736.484)" fill="#f90" fill-rule="evenodd"/><path d="M201.177,755.314c-.851-1.091-5.647-.516-7.8-.26-.656.08-.756-.491-.165-.9,3.82-2.688,10.087-1.912,10.818-1.011s-.19,7.188-3.779,10.187c-.551.461-1.076.215-.831-.4.806-2.012,2.613-6.523,1.757-7.619" transform="translate(-127.055 -731.39)" fill="#f90" fill-rule="evenodd"/><path d="M193.7,648.744v-2.613a.645.645,0,0,1,.661-.661h11.7a.651.651,0,0,1,.676.661v2.238a3.681,3.681,0,0,1-.881,1.642l-6.062,8.655a12.917,12.917,0,0,1,6.673,1.432,1.191,1.191,0,0,1,.621,1.016V663.9c0,.38-.421.826-.861.6a13.476,13.476,0,0,0-12.36.02c-.405.22-.831-.22-.831-.6v-2.648a3.16,3.16,0,0,1,.43-1.8l7.023-10.072h-6.112a.647.647,0,0,1-.676-.656" transform="translate(-127.223 -644.96)" fill="#221f1f" fill-rule="evenodd"/><path d="M-44.756,663.627h-3.559a.672.672,0,0,1-.636-.606V644.755a.668.668,0,0,1,.686-.656h3.319a.67.67,0,0,1,.646.611V647.1h.065a4.7,4.7,0,0,1,4.686-3.384c2.228,0,3.619,1.076,4.62,3.384a5.046,5.046,0,0,1,4.916-3.384,5.059,5.059,0,0,1,4.12,2c1.126,1.537.9,3.769.9,5.727L-25,662.966a.672.672,0,0,1-.686.661h-3.554a.677.677,0,0,1-.641-.661v-9.681a22.864,22.864,0,0,0-.1-3.424,1.853,1.853,0,0,0-2.092-1.572,2.364,2.364,0,0,0-2.128,1.5,11.058,11.058,0,0,0-.33,3.5v9.681a.672.672,0,0,1-.686.661h-3.554a.673.673,0,0,1-.641-.661l-.005-9.681c0-2.037.335-5.036-2.193-5.036-2.558,0-2.458,2.923-2.458,5.036v9.681a.672.672,0,0,1-.686.661" transform="translate(68.554 -643.538)" fill="#221f1f" fill-rule="evenodd"/><path d="M283.6,643.714c5.281,0,8.14,4.535,8.14,10.3,0,5.572-3.159,9.992-8.14,9.992-5.186,0-8.009-4.535-8.009-10.187,0-5.687,2.858-10.107,8.009-10.107m.03,3.729c-2.623,0-2.788,3.574-2.788,5.8s-.035,7,2.758,7c2.758,0,2.888-3.844,2.888-6.187a16.886,16.886,0,0,0-.531-4.846,2.226,2.226,0,0,0-2.328-1.767" transform="translate(-194.016 -643.539)" fill="#221f1f" fill-rule="evenodd"/><path d="M378.274,663.627H374.73a.676.676,0,0,1-.641-.661l-.005-18.271a.673.673,0,0,1,.686-.6h3.3a.681.681,0,0,1,.636.511V647.4h.065c1-2.5,2.393-3.689,4.851-3.689a4.67,4.67,0,0,1,4.155,2.153c.931,1.462.931,3.92.931,5.687v11.5a.684.684,0,0,1-.686.576h-3.569a.674.674,0,0,1-.631-.576V653.13c0-2,.23-4.921-2.228-4.921a2.326,2.326,0,0,0-2.057,1.462,8.084,8.084,0,0,0-.566,3.459v9.837a.684.684,0,0,1-.7.661" transform="translate(-273.707 -643.538)" fill="#221f1f" fill-rule="evenodd"/><path d="M103.238,654.159a6.962,6.962,0,0,1-.666,3.774,2.892,2.892,0,0,1-2.463,1.617c-1.367,0-2.168-1.041-2.168-2.578,0-3.034,2.718-3.584,5.3-3.584v.771m3.589,8.675a.743.743,0,0,1-.841.085,8.675,8.675,0,0,1-2.042-2.373,7.048,7.048,0,0,1-5.867,2.588c-3,0-5.326-1.847-5.326-5.547a6.041,6.041,0,0,1,3.794-5.817c1.932-.851,4.63-1,6.693-1.236v-.461a4.54,4.54,0,0,0-.436-2.578,2.369,2.369,0,0,0-2-.926,2.708,2.708,0,0,0-2.858,2.138.744.744,0,0,1-.621.651l-3.449-.37a.627.627,0,0,1-.531-.746c.791-4.185,4.575-5.446,7.959-5.446a8.069,8.069,0,0,1,5.361,1.772c1.732,1.617,1.567,3.774,1.567,6.122v5.547a4.868,4.868,0,0,0,1.342,3.3.673.673,0,0,1-.015.946c-.726.606-2.017,1.732-2.728,2.363l-.005-.01" transform="translate(-46.091 -642.796)" fill="#221f1f" fill-rule="evenodd"/><path d="M-141.129,654.159a6.962,6.962,0,0,1-.666,3.774,2.886,2.886,0,0,1-2.463,1.617c-1.367,0-2.163-1.041-2.163-2.578,0-3.034,2.718-3.584,5.291-3.584v.771m3.589,8.675a.743.743,0,0,1-.841.085,8.763,8.763,0,0,1-2.042-2.373,7.042,7.042,0,0,1-5.867,2.588c-2.994,0-5.326-1.847-5.326-5.547a6.048,6.048,0,0,1,3.794-5.817c1.932-.851,4.63-1,6.693-1.236v-.461a4.58,4.58,0,0,0-.431-2.578,2.381,2.381,0,0,0-2-.926,2.713,2.713,0,0,0-2.863,2.138.745.745,0,0,1-.616.651l-3.454-.37a.63.63,0,0,1-.531-.746c.8-4.185,4.575-5.446,7.959-5.446a8.069,8.069,0,0,1,5.361,1.772c1.732,1.617,1.567,3.774,1.567,6.122v5.547a4.868,4.868,0,0,0,1.342,3.3.669.669,0,0,1-.01.946c-.726.606-2.017,1.732-2.728,2.363l-.01-.01" transform="translate(151.616 -642.796)" fill="#221f1f" fill-rule="evenodd"/></g></g></g></svg>