<svg xmlns="http://www.w3.org/2000/svg" width="115" height="59.155" viewBox="0 0 115 59.155"><g transform="translate(-1062 -2142.845)"><rect width="115" height="59" transform="translate(1062 2143)" fill="none"/><g transform="translate(1034.5 1140.495)"><path d="M55.5,1002.35h59.155v31.934l-2.928,4.575,2.928,4.072V1061.5H55.5v-30.1l1.83-2.1-1.83-2.013Z" transform="translate(0)" fill="#016fd0"/><path d="M249.14,1550.118v-9.287h9.833l1.055,1.375,1.09-1.375h35.693v8.647a4.122,4.122,0,0,1-2.013.641H275.035l-1.19-1.464v1.464h-3.9v-2.5a3.271,3.271,0,0,1-1.684.349h-1.327v2.15h-5.9l-1.054-1.4-1.07,1.4Z" transform="translate(-182.157 -506.548)" fill="#fff"/><path d="M55.5,1340.793l2.217-5.17h3.835l1.258,2.9v-2.9h4.767l.749,2.093.726-2.093h21.4v1.052a4.617,4.617,0,0,1,2.974-1.052l6.943.024,1.237,2.858v-2.882H105.6l1.1,1.642v-1.642h4.026v9.287h-4.026l-1.052-1.647v1.647H99.78l-.589-1.464H97.615l-.58,1.464H93.06a3.929,3.929,0,0,1-2.608-1.031v1.031H84.459l-1.189-1.464v1.464H60.984l-.589-1.464H58.824l-.585,1.464H55.5Z" transform="translate(0 -313.51)" fill="#fff"/><path d="M58.684,1354.93l-2.991,6.954H57.64l.552-1.393H61.4l.549,1.393h1.99l-2.988-6.954Zm1.107,1.619.978,2.433H58.81Z" transform="translate(-0.182 -331.671)" fill="#016fd0"/><path d="M198.223,1361.86v-6.954l2.767.01,1.609,4.483,1.571-4.494h2.745v6.954h-1.738v-5.124l-1.843,5.124H201.81l-1.848-5.124v5.124Z" transform="translate(-134.26 -331.649)" fill="#016fd0"/><path d="M364.861,1361.86v-6.954h5.673v1.556h-3.916v1.189h3.825v1.464h-3.825v1.235h3.916v1.51Z" transform="translate(-291.016 -331.649)" fill="#016fd0"/><path d="M477.5,1354.93v6.954h1.738v-2.47h.732l2.084,2.47h2.125l-2.288-2.562a2.118,2.118,0,0,0,1.907-2.136,2.249,2.249,0,0,0-2.43-2.256Zm1.738,1.555h1.987a.8.8,0,0,1,.823.732.786.786,0,0,1-.8.732h-2.013Z" transform="translate(-396.972 -331.671)" fill="#016fd0"/><path d="M597.462,1361.86h-1.775v-6.954h1.775Z" transform="translate(-508.153 -331.649)" fill="#016fd0"/><path d="M643.255,1361.86h-.383c-1.854,0-2.979-1.461-2.979-3.448a3.186,3.186,0,0,1,3.454-3.506h1.922v1.647h-1.992a1.673,1.673,0,0,0-1.622,1.876,1.7,1.7,0,0,0,1.876,1.912h.457Z" transform="translate(-549.737 -331.649)" fill="#016fd0"/><path d="M712.943,1354.93l-2.991,6.954H711.9l.552-1.393h3.208l.549,1.393h1.99l-2.988-6.954Zm1.107,1.619.978,2.433h-1.959Z" transform="translate(-615.642 -331.671)" fill="#016fd0"/><path d="M852.433,1361.86v-6.954h2.21l2.822,4.369v-4.369H859.2v6.954h-2.139l-2.894-4.484v4.484Z" transform="translate(-749.674 -331.649)" fill="#016fd0"/><path d="M269.2,1567.08v-6.954h5.673v1.556h-3.916v1.189h3.825v1.464h-3.825v1.235h3.916v1.51Z" transform="translate(-201.026 -524.699)" fill="#016fd0"/><path d="M737.947,1567.08v-6.954h5.673v1.556H739.7v1.189h3.806v1.464H739.7v1.235h3.916v1.51Z" transform="translate(-641.977 -524.699)" fill="#016fd0"/><path d="M367.531,1567.08l2.762-3.434-2.828-3.52h2.19l1.684,2.176,1.69-2.176h2.1l-2.791,3.477,2.767,3.477h-2.19l-1.635-2.142-1.6,2.142Z" transform="translate(-293.465 -524.698)" fill="#016fd0"/><path d="M499.869,1560.14v6.954h1.784v-2.2h1.83c1.548,0,2.722-.822,2.722-2.419a2.289,2.289,0,0,0-2.5-2.339Zm1.784,1.573h1.927a.785.785,0,0,1,.858.8.8.8,0,0,1-.863.8h-1.922v-1.6Z" transform="translate(-418.017 -524.712)" fill="#016fd0"/><path d="M619.448,1560.12v6.954h1.738v-2.47h.732l2.084,2.47h2.125l-2.288-2.562a2.118,2.118,0,0,0,1.907-2.136,2.25,2.25,0,0,0-2.43-2.256h-3.869Zm1.738,1.555h1.987a.8.8,0,0,1,.823.732.786.786,0,0,1-.8.732h-2.013Z" transform="translate(-530.505 -524.693)" fill="#016fd0"/><path d="M843.685,1567.08v-1.51h3.479c.515,0,.738-.278.738-.583s-.222-.588-.738-.588h-1.572a1.944,1.944,0,0,1-2.128-2.083c0-1.115.7-2.19,2.728-2.19h3.385l-.732,1.565h-2.928c-.56,0-.732.294-.732.574a.606.606,0,0,0,.641.606h1.647a1.908,1.908,0,0,1,2.185,2,2.085,2.085,0,0,1-2.268,2.213Z" transform="translate(-741.237 -524.698)" fill="#016fd0"/><path d="M951.282,1567.08v-1.51h3.479c.515,0,.738-.278.738-.583s-.222-.588-.738-.588h-1.572a1.944,1.944,0,0,1-2.128-2.083c0-1.115.7-2.19,2.728-2.19h3.385l-.732,1.565h-2.928c-.56,0-.732.294-.732.574a.606.606,0,0,0,.641.606h1.647a1.908,1.908,0,0,1,2.185,2,2.085,2.085,0,0,1-2.267,2.213Z" transform="translate(-842.453 -524.698)" fill="#016fd0"/></g></g></svg>