<svg xmlns="http://www.w3.org/2000/svg" width="115" height="59" viewBox="0 0 115 59"><g transform="translate(-89 -2143)"><rect width="115" height="59" transform="translate(89 2143)" fill="none"/><path d="M91.3,56.251C91.232,48.8,97.4,45.171,97.686,45a13.736,13.736,0,0,0-10.817-5.846c-4.55-.479-8.964,2.722-11.282,2.722-2.364,0-5.934-2.676-9.781-2.6a14.4,14.4,0,0,0-12.122,7.391c-5.242,9.073-1.332,22.405,3.69,29.739,2.512,3.594,5.448,7.6,9.29,7.461,3.759-.153,5.163-2.394,9.7-2.394,4.495,0,5.813,2.394,9.732,2.3,4.034-.062,6.574-3.608,9-7.232A29.642,29.642,0,0,0,99.21,68.17,12.971,12.971,0,0,1,91.3,56.251Zm-7.4-21.92a13.193,13.193,0,0,0,3.021-9.457,13.447,13.447,0,0,0-8.693,4.5c-1.865,2.179-3.53,5.749-3.1,9.107C78.411,38.723,81.787,36.82,83.9,34.331Z" transform="translate(71.544 2118.125)" fill="#222"/></g></svg>