<svg xmlns="http://www.w3.org/2000/svg" width="115" height="59" viewBox="0 0 115 59"><g transform="translate(-1062 -2143)"><rect width="115" height="59" transform="translate(1062 2143)" fill="none"/><g transform="translate(1064 2142.926)"><path d="M84.551,75.66a20.872,20.872,0,0,0-4.772-.618c-4.512,0-7.229,2.437-7.229,6.065,0,3.212,2.273,4.814,5,5.675.3.1.748.239,1.045.338,1.214.382,2.183.95,2.183,1.933,0,1.1-1.12,1.811-3.555,1.811a18.348,18.348,0,0,1-4.624-.721v4.464a29.243,29.243,0,0,0,5.284.53c3.746,0,8.032-1.637,8.032-6.51,0-2.364-1.447-4.54-4.625-5.55l-1.351-.43c-.806-.254-2.244-.666-2.244-1.847,0-.933,1.066-1.59,3.028-1.59a16.794,16.794,0,0,1,3.827.592Zm41.372,9.43a5.062,5.062,0,1,1-5.063-5.1,5.018,5.018,0,0,1,5.063,5.1M120.86,75.048A10.047,10.047,0,1,0,131.112,85.09,9.957,9.957,0,0,0,120.86,75.048M65.985,94.792h-4.9v-19.4h4.9" transform="translate(-29.513 -36.218)" fill="#049fd9"/><path d="M34.242,75.749a14.9,14.9,0,0,0-4.464-.7c-5.958,0-10.331,4.248-10.331,10.042,0,6.251,4.828,10.047,10.331,10.047a15.53,15.53,0,0,0,4.464-.691V89.245a8.585,8.585,0,0,1-4.113,1.03,5.18,5.18,0,1,1,0-10.353,8.5,8.5,0,0,1,4.113,1.036" transform="translate(-9.395 -36.224)" fill="#049fd9"/><path d="M34.242,75.749a14.9,14.9,0,0,0-4.464-.7c-5.958,0-10.331,4.248-10.331,10.042,0,6.251,4.828,10.047,10.331,10.047a15.53,15.53,0,0,0,4.464-.691V89.245a8.585,8.585,0,0,1-4.113,1.03,5.18,5.18,0,1,1,0-10.353,8.5,8.5,0,0,1,4.113,1.036" transform="translate(41.704 -36.224)" fill="#049fd9"/><g transform="translate(0 0.074)"><path d="M31.562,2.5a2.431,2.431,0,0,0-4.861,0V28.257a2.431,2.431,0,0,0,4.861,0ZM18.211,11.64a2.43,2.43,0,0,0-4.861,0V23.418a2.43,2.43,0,0,0,4.861,0ZM4.861,18.325a2.43,2.43,0,0,0-4.861,0v5.093a2.43,2.43,0,0,0,4.861,0" transform="translate(0 -0.074)" fill="#049fd9"/><path d="M31.562,28.191a2.431,2.431,0,0,1-4.861,0V2.429a2.431,2.431,0,0,1,4.861,0ZM18.211,19.046a2.43,2.43,0,0,1-4.861,0V7.268a2.43,2.43,0,0,1,4.861,0ZM4.861,12.361a2.43,2.43,0,0,1-4.861,0V7.268a2.43,2.43,0,0,1,4.861,0" transform="translate(58.262 30.612) rotate(180)" fill="#049fd9"/></g><g transform="translate(111.648 30.686) rotate(180)"><path d="M31.562,28.191a2.431,2.431,0,0,1-4.861,0V2.429a2.431,2.431,0,0,1,4.861,0ZM18.211,19.046a2.43,2.43,0,0,1-4.861,0V7.268a2.43,2.43,0,0,1,4.861,0ZM4.861,12.361a2.43,2.43,0,0,1-4.861,0V7.268a2.43,2.43,0,0,1,4.861,0" fill="#049fd9"/><path d="M31.562,2.422a2.431,2.431,0,0,0-4.861,0V28.183a2.431,2.431,0,0,0,4.861,0ZM18.211,11.566a2.43,2.43,0,0,0-4.861,0V23.344a2.43,2.43,0,0,0,4.861,0ZM4.861,18.251a2.43,2.43,0,0,0-4.861,0v5.093a2.43,2.43,0,0,0,4.861,0" transform="translate(58.262 30.612) rotate(180)" fill="#049fd9"/></g></g></g></svg>