<svg xmlns="http://www.w3.org/2000/svg" width="115" height="59" viewBox="0 0 115 59"><g transform="translate(-784 -2143)"><rect width="115" height="59" transform="translate(784 2143)" fill="none"/><g transform="translate(-1272.892 1745.998)"><path d="M119.8,20.58l.213-.153a17.974,17.974,0,0,0,1.429-2.584l-1.794-.09c-.392.09-.91-.09-1.274.152a18.4,18.4,0,0,0-1.432,2.614,18.077,18.077,0,0,0,2.858.061ZM89.372,39.668l-11.036,2.8a18.361,18.361,0,0,1-5.834.458,6.6,6.6,0,0,1-5.291-3.678c-1.551-4.225.242-8.694,2.007-12.373A46.817,46.817,0,0,1,81.134,12.188c1.579-1,3.281-2.218,5.29-1.764a1.566,1.566,0,0,1,.7.884,1.388,1.388,0,0,1-.274,1.155,1.947,1.947,0,0,0-1.733.607,2.632,2.632,0,0,0-.819,2.25.853.853,0,0,0,.79.549,2.623,2.623,0,0,0,1.7-1.218c.82-1.246,1.61-3.039.73-4.5a2.549,2.549,0,0,0-1.613-1.1c-2.948-.275-5.471,1-7.841,2.341a39.285,39.285,0,0,0-14.5,16.659c-1.734,4.1-2.918,10.4.639,14.075,2.766,3.008,7.63,2.736,11.308,1.824l9.576-2.371c3.223-.641,7.385-1.035,10.274.608a8.9,8.9,0,0,1,2.766,2.46,6.942,6.942,0,0,1,2.129-1.763c3.859-1.336,7.752.273,11.066,1.794a23.125,23.125,0,0,0-7.357-4.925c-4.376-1.853-10.063-1.186-14.591-.092ZM113.9,26.658c-1.551,1.946-2.918,4.318-5.166,5.625a.692.692,0,0,1-.882-.123,1.474,1.474,0,0,1,.091-1.184l7.236-12.617.182-.487a13.057,13.057,0,0,0-3.073-.03l-.669,1c-.364-.3-.7-.79-1.185-.941a4.487,4.487,0,0,0-3.92,1.032c-4.711,3.5-6.963,8.666-11.218,12.557-1.216.974-2.707,2.309-4.286,1.428a2.888,2.888,0,0,1-.639-2.8,22.2,22.2,0,0,1,6.474-10.091c.822-.516,1.674-1.307,2.737-.851A1.106,1.106,0,0,1,100.1,20.4c.061.731-.67.3-1.065.456a2.836,2.836,0,0,0-1.7,2.006.957.957,0,0,0,.335,1.035,1.517,1.517,0,0,0,1.641-.548c1.1-1.217,1.975-2.888,1.277-4.47l-.486-.607c-2.1-1.307-4.409.123-6.081,1.429-2.252,1.732-3.951,4.622-6.75,4.925A16.058,16.058,0,0,0,88.457,20.4,2.412,2.412,0,0,0,87.364,18a4.033,4.033,0,0,0-3.343.4A22.728,22.728,0,0,0,74.9,29.214c-.517,1.792-1.338,3.984-.122,5.714a2.507,2.507,0,0,0,2.614.551c4.286-1.584,7.206-6.2,9.333-9.913.821-.091,1.582-.455,2.342-.549a16.713,16.713,0,0,0-2.525,6.142,3.989,3.989,0,0,0,1.367,3.951c2.8,1.279,5.29-.76,7.358-2.582.851-.76,1.7-1.765,2.554-2.434a13.943,13.943,0,0,0-.79,3.192,2.259,2.259,0,0,0,1.245,2.193c2.432.484,4.013-1.643,5.716-3.134l.061.062c-.243.88-.607,2.156.241,2.859a1.914,1.914,0,0,0,1.37.332c3.191-.942,5.441-4.193,7.476-6.749a9.016,9.016,0,0,0,1.308-2.189c-.182-.032-.394-.122-.547,0Zm-32.009,4.5c-.82.7-1.641,1.49-2.766,1.248-.427-.062-.639-.548-.792-.912-.09-2.552,1.4-4.774,2.707-6.9l1.216-1.642c.334.244.4.669.7.974a5.369,5.369,0,0,0,2.858,1.641,20.909,20.909,0,0,1-3.922,5.593Zm4.348-6.475a3.164,3.164,0,0,1-2.707-1.46,2.805,2.805,0,0,1,.518-2.856c.82-.912,2.1-1.854,3.221-.973.67,1,.184,2.28-.059,3.313a7.528,7.528,0,0,1-.973,1.976Zm16.2,7.66c-.274.062-.729.153-.945-.089-.423-.336-.332-.975-.242-1.429.792-2.919,2.707-5.38,4.47-7.9,1.217-1.459,2.524-3.375,4.378-3.861a.783.783,0,0,1,.911.425v.365l-4.53,7.812c-1.127,1.675-2.191,3.681-4.043,4.683Zm30.4-5.257a3.189,3.189,0,0,0-3.253-.245c-4.1,1.7-6.141,6.018-6.717,10.09l.059.153a11.009,11.009,0,0,1,4.257-3.071,11.3,11.3,0,0,1,1.552-3.89c.82-1.065,1.885-2.492,3.374-2.158a1.293,1.293,0,0,1,.7,1.185c.121,3.739-1.857,6.81-4.258,9.609-1.883,1.791-4.012,3.98-6.778,3.161a3.668,3.668,0,0,1-2.035-2.554c-.519-4.042,1.185-7.6,2.734-10.974a46.814,46.814,0,0,1,14.775-16.9c1.519-.7,2.978-1.883,4.894-1.4.122.031.335.121.335.3a21.085,21.085,0,0,0-6.808,6.323c-.822,1.461-1.764,2.89-1.674,4.712a1.919,1.919,0,0,0,1.032,1.49c1.369.426,2.524-.426,3.589-1.093a15,15,0,0,0,5.382-9.7c.121-.488-.215-.972.03-1.368a6.644,6.644,0,0,1,3.859.3c3.377,1.4,6.386,3.618,9.637,5.231.791-.7,1.553-1.552,2.341-2.342l.092-.274a62.554,62.554,0,0,0-7.844-4.107c-2.644-1.154-6.08-.7-8.632.337a3.9,3.9,0,0,0-3.193-1.065c-3.526.365-6.474,2.1-9.363,4.044A43.469,43.469,0,0,0,115.7,33.65c-.942,3.193-1.367,7.66,1.672,9.973,1.674,1.277,4.38,1.032,6.173.212,4.439-2.1,7.935-6.719,9.546-11.1.575-1.642,1.093-4.165-.245-5.653Zm10.428-15.233a13.755,13.755,0,0,1-6.051,9.973,2.531,2.531,0,0,1-1.822.333,1.094,1.094,0,0,1-.609-.759c-.031-2.28,1.4-4.043,2.675-5.806a16.016,16.016,0,0,1,5.442-4.438c.3.03.334.423.365.7Zm25.048,18.393,1.944-3.528-.06-.09-2.768-.029c-.575.09-.666.819-1.033,1.184h-.121a2.912,2.912,0,0,0-.883-.851,3.342,3.342,0,0,0-3.16.213c-4.681,3.1-7.233,8.086-10.276,12.405-.788.819-1.671,2.372-2.948,1.884-.394-.306-.394-.73-.456-1.187a21.767,21.767,0,0,1,2.1-6.869,50.363,50.363,0,0,0,6.353-5.441,69.671,69.671,0,0,0,8.389-9.79.717.717,0,0,0-.7.061,75.294,75.294,0,0,1-13.044,13.527l-.184.033a73.141,73.141,0,0,1,4.986-8.909c2.86-4.285,5.808-8.785,10.092-12.25.579-.334,1.309-1.065,1.976-.517a2.02,2.02,0,0,1-.121,1.52c-.241.882-.882,1.641-1.064,2.523.273-.03.577-.03.7-.275l.974-2.066a2.7,2.7,0,0,0-.03-2.584,1.622,1.622,0,0,0-1.125-.3,9.932,9.932,0,0,0-3.924,1.946c-7.812,6.353-13.071,14.472-16.961,22.8a4.186,4.186,0,0,1-2.342.427,15,15,0,0,0,1.49-4.9,2.474,2.474,0,0,0-1.157-2.464,4.317,4.317,0,0,0-3.4.487c-4.65,2.645-7.722,7.389-9.3,12.068-.335,1.522-.76,3.618.576,4.776a3.092,3.092,0,0,0,3.04.027c3.769-1.79,6.355-5.8,8.268-9.21.791-.06,1.552-.153,2.31-.273l.091.06-1,2.978c-.363,1.977-1.61,4.561.092,6.294a2.119,2.119,0,0,0,1.7.425c2.068-.518,3.526-2.554,5.078-4.073a8.808,8.808,0,0,0-.245,2.367,2.027,2.027,0,0,0,1.186,1.705c2.494.607,4.1-1.731,5.838-3.314l.029.031c-.275.911-.608,2.218.151,3.007a2.04,2.04,0,0,0,2.158.152c3.466-1.731,5.868-5.41,7.9-8.482v-.3c-.213-.03-.485-.059-.639.123-1.428,2.066-2.891,4.438-5.167,5.8a.585.585,0,0,1-.761-.209c-.275-.517.091-1.035.212-1.493l5.234-9.422Zm-26.357,6.932a12.781,12.781,0,0,1-3.83,3.949,1.67,1.67,0,0,1-1.368.064,1.193,1.193,0,0,1-.669-.852c-.152-2.919,1.552-5.291,3.069-7.66l.76-.912a6.6,6.6,0,0,0,1.884,2.248l1.49.7a9.289,9.289,0,0,1-1.336,2.465Zm1.8-3.253a3.246,3.246,0,0,1-2.493-1.793,2.913,2.913,0,0,1,.486-3.071c.791-.942,2.372-2.035,3.314-.73.667,2.007-.426,3.924-1.307,5.594Zm16.536,4.56c-.761,1.094-1.7,2.46-3.009,2.886a.912.912,0,0,1-.882-.425c-.362-1.64.639-3.007,1.215-4.407,1.733-2.916,3.525-6.139,6.507-8.267.516-.275,1.4-.394,1.673.3l-.03.335-5.474,9.575Zm2.738-23.713a18.038,18.038,0,0,0-2.22,2.617v.18c3.374.762,6.624-.333,9.392-1.884a19.317,19.317,0,0,0,6.689-6.6c-3.922,3.616-8.361,6.231-13.861,5.683Z" transform="translate(1995 400)" fill="#f40000" fill-rule="evenodd"/></g></g></svg>