<svg xmlns="http://www.w3.org/2000/svg" width="115" height="59" viewBox="0 0 115 59"><g transform="translate(-1062 -2143)"><rect width="115" height="59" transform="translate(1062 2143)" fill="none"/><path d="M-219.252-27.218s.285-.427.524-.752a13.641,13.641,0,0,1,1.816-1.918c.183-.154.4-.331.4-.331s-.335.035-.524.074a4.02,4.02,0,0,0-1.441.81c-.544.465-1.142,1.222-.872,1.894.04.1.1.224.1.224m3.025.809a5.738,5.738,0,0,0,2.415-.721c.735-.411,1.816-1.213,1.706-2.157a.8.8,0,0,0-.487-.643,1.106,1.106,0,0,0-.919.005,2.776,2.776,0,0,0-.727.308,11.088,11.088,0,0,0-2.689,2.376c-.15.2-.3.417-.42.568-.077.092-.134.179-.127.2a3.74,3.74,0,0,0,1.249.062m-2.19,1.609a3.772,3.772,0,0,0-.279.485.952.952,0,0,1-.212.244.44.44,0,0,1-.63-.018,1.534,1.534,0,0,1-.49-1.085,3.56,3.56,0,0,0-.009-.52,3.454,3.454,0,0,0-.441-.746,2.946,2.946,0,0,1-.3-1.092,3.638,3.638,0,0,1,1.145-2.621,7.545,7.545,0,0,1,2.547-1.742,4.98,4.98,0,0,1,3.272-.3,2.507,2.507,0,0,1,1.015.683.705.705,0,0,0,.139.161,1.021,1.021,0,0,0,.255.056,2.553,2.553,0,0,1,.975.461,1.875,1.875,0,0,1,.684,1.1,3.008,3.008,0,0,1-.933,2.528,9.26,9.26,0,0,1-3.358,2.306,5.361,5.361,0,0,1-2.131.377c-.2-.017-.413-.07-.611-.085a2.591,2.591,0,0,1-.509-.132c-.049-.036-.112-.069-.125-.056m-31.354,2.7a3.5,3.5,0,0,0,1.311-.244c.236-.1.508-.33.374-.6-.081-.168-.37-.226-.539-.214A1.382,1.382,0,0,0-249.8-22.14c-.007.02-.005.041.032.041m2.39-1.412a2.406,2.406,0,0,1,.5,1.379,2.15,2.15,0,0,1-.418,1.409,2.89,2.89,0,0,1-2.147,1.069,5.189,5.189,0,0,1-.962-.026c-.032-.011-.051-.024-.068-.019a3.7,3.7,0,0,0-.154.631c-.074.572-.164.976-.23,1.426-.055.357-.095.741-.126,1.122a27.2,27.2,0,0,0,.062,5.5,1.454,1.454,0,0,1,0,.375.61.61,0,0,1-.463.509c-.767.2-1.5-.557-1.877-1.165-.879-1.419-.592-4.319-.339-5.752a18.361,18.361,0,0,1,.561-2.384,5.759,5.759,0,0,0,.246-.781c-.011-.022-.412-.175-.78-.317a7.266,7.266,0,0,1-.8-.415,4.084,4.084,0,0,1-.972-.784,5.5,5.5,0,0,1-.414-.619,1.877,1.877,0,0,1-.039-1.525c.052-.142.336-.739.526-.72.273.024.213.476.285.709a1,1,0,0,0,.161.287,6.129,6.129,0,0,0,2.164,1.093,4.138,4.138,0,0,0,1.005.216,3.94,3.94,0,0,0,.285-.455,1.224,1.224,0,0,1,.178-.233,3.959,3.959,0,0,1,1.949-1.183,2.271,2.271,0,0,1,1.263.17,1.765,1.765,0,0,1,.607.487m-7.671,6.3a.313.313,0,0,1,.088.026c.373.163.373.829.283,1.142a4.429,4.429,0,0,1-1.646,2.1,5.553,5.553,0,0,1-1.678.706,1.889,1.889,0,0,1-2.063-.752,4.227,4.227,0,0,1-.627-2.121,17.32,17.32,0,0,1,1.371-6.864c.109-.233.643-1.32,1.14-1.5s.712.4.761.838a6.216,6.216,0,0,1-.256,1.894c-.248,1.046-.605,2.681-.69,3.149a8.875,8.875,0,0,0-.222,2.1c.038.287.093.431.311.414.1-.009,1.5-.652,2.262-.938a2.373,2.373,0,0,1,.966-.194m-10.347-.96s.159,0,.323,0c.522-.007,1.4-.1,1.4-.1s-.1-.77-.177-1.262a7.114,7.114,0,0,0-.167-.791,2.76,2.76,0,0,0-.2-.574.516.516,0,0,0-.036-.054s-.422.815-.659,1.384c-.188.451-.282.786-.414,1.06a.637.637,0,0,0-.071.226.952.952,0,0,0,0,.114m-2.8.089s.251-.563.445-.989a32.128,32.128,0,0,1,1.666-3.114c.473-.657,1.377-1.9,1.384-1.934a1.4,1.4,0,0,1,.176-.573.75.75,0,0,1,.58-.235.762.762,0,0,1,.653.395,14.892,14.892,0,0,1,.7,1.86,44.356,44.356,0,0,1,1.1,5.961c.042.392.172,2.435.182,2.9a2.181,2.181,0,0,1-.185,1.124.418.418,0,0,1-.327.183,1.584,1.584,0,0,1-.668-.387,2.349,2.349,0,0,1-.786-1.287c-.077-.427-.185-1.653-.185-1.653l-1.824.073-1.016.017s-.1.237-.175.435c-.17.423-.322.846-.388,1.084-.133.478-.389,1.425-.45,1.572-.128.31-.241.491-.543.531a1.229,1.229,0,0,1-.806-.063,1.7,1.7,0,0,1-.74-1.322,5.793,5.793,0,0,1,.625-2.776c.162-.463-.061-.617-.445-1.218a.693.693,0,0,1-.11-.22.4.4,0,0,1,.13-.289.1.1,0,0,1,.081-.026l.923-.044m-10.417-6.006s-.023-.589-.073-.917a1.7,1.7,0,0,0-.229-.7c-.145-.233-.256-.379-.485-.414-.281-.041-.436.15-.611.426a7.776,7.776,0,0,0-.6,1.506,9.495,9.495,0,0,0-.388,1.715,18.2,18.2,0,0,0-.164,4.488c.035.232.093.571.093.571s.281-.315.486-.535c.087-.1.5-.718.541-.783.072-.125.265-.454.291-.521s.341-.716.394-.867c.1-.289.247-.733.36-1.088a13.146,13.146,0,0,0,.388-2.026,6.7,6.7,0,0,0,.017-.855.034.034,0,0,0-.017,0m-1.992,8.629s.111.194.2.34a2.638,2.638,0,0,0,2.2,1.319,5.393,5.393,0,0,0,2.9-1c2.009-1.4,3.066-3.916,3.642-6.33a16.66,16.66,0,0,0-.1-8.555,12.7,12.7,0,0,0-2.515-4.77c-.337-.353-.854-.835-1-1.032s-.19-.375.044-.511.786.152,1.056.315a8.908,8.908,0,0,1,2.967,2.752c.2.29.991,1.6,1.136,1.868a13.816,13.816,0,0,1,1.587,4.986,16.636,16.636,0,0,1-.7,7.387,14.693,14.693,0,0,1-1.478,3c-.136.211-.97,1.332-1.073,1.442-.287.3-1,.916-1.327,1.183a7.271,7.271,0,0,1-5.409,1.96,5.284,5.284,0,0,1-2.832-1.194,5.579,5.579,0,0,1-1.116-1.245,4.963,4.963,0,0,0-.351-.578.735.735,0,0,0-.226.132,5.2,5.2,0,0,1-.686.32,4.551,4.551,0,0,1-4.092-.419,5.446,5.446,0,0,1-1.993-2.687,10.251,10.251,0,0,1-.333-4.6,18.167,18.167,0,0,1,2.748-7.468,13.943,13.943,0,0,1,3.491-3.819c.158-.114,1.015-.613,1.19-.693.317-.149.739-.287.983-.026.127.135.123.244.029.422a5.461,5.461,0,0,1-.741.875c-.183.2-1.218,1.466-1.431,1.763-.234.317-1.288,1.895-1.426,2.137a18.33,18.33,0,0,0-2.282,8.771,11.677,11.677,0,0,0,.238,1.973,4.016,4.016,0,0,0,1.278,2.206,2.054,2.054,0,0,0,2.171.134c.221-.089.535-.231.535-.231s-.242-.621-.4-1.088a12.848,12.848,0,0,1-.451-4.789,7.339,7.339,0,0,1,.921-2.988,7.756,7.756,0,0,1,1.694-2.075,4.792,4.792,0,0,1,2.73-1.114,2.263,2.263,0,0,1,2.04,1.052,7.725,7.725,0,0,1,.568,4.556,8.486,8.486,0,0,1-2.813,5.1c-.531.451-1.56,1.216-1.56,1.216m63.367-7.315a1.187,1.187,0,0,1,.155.044,1.36,1.36,0,0,1,.764,1.071,32.186,32.186,0,0,1,.419,4.437c.032.705.05,1.4.079,2.1a8.46,8.46,0,0,1-.05,1.934.912.912,0,0,1-.369.549,1.684,1.684,0,0,1-.991.094c-.675-.14-.895-.574-.99-1.241a33.271,33.271,0,0,1,.016-6.037,12.989,12.989,0,0,1,.437-2.413c.077-.2.242-.6.531-.54m-20.789,2.39s-1,.071-1.686.147a18.389,18.389,0,0,0-3.466.718c-.285.1-.864.342-.914.633a.985.985,0,0,0,.346.787c.121.142.806.8,1,.961a17.32,17.32,0,0,0,3.642,2.212c.411.171,1.095.416,1.095.416s-.051-1.946-.041-3.862c0-1.013.027-2.013.027-2.013m18.31.774a8.448,8.448,0,0,1-.1,1.641,7.861,7.861,0,0,1-.306,1.078,12.2,12.2,0,0,1-.555,1.11,9.156,9.156,0,0,1-1.569,1.924,13.081,13.081,0,0,1-6.663,2.611,17,17,0,0,1-4.97-.144c-.564-.1-1.4-.3-1.4-.3s0,.336-.026.573a2.422,2.422,0,0,1-.14.483.764.764,0,0,1-.6.427,1.789,1.789,0,0,1-1.027-.049,1.477,1.477,0,0,1-.8-1.27c-.074-.451-.151-1.235-.151-1.235s-.39-.184-.715-.347a18.382,18.382,0,0,1-2.779-1.7c-.23-.17-1.218-1-1.437-1.206a8.1,8.1,0,0,1-1.581-1.9,1.819,1.819,0,0,1-.172-1.707,4.614,4.614,0,0,1,2.408-1.868,20.008,20.008,0,0,1,3.329-1.013,9.99,9.99,0,0,0,.994-.181.169.169,0,0,0,.036-.033c.018-.026.049-.874.043-1.183s.226-2.3.3-2.727a4.967,4.967,0,0,1,.391-1.341.35.35,0,0,1,.486-.041c.913.566,1.189,2.535,1.257,3.538.041.61.061,1.528.061,1.528s1.047-.03,1.692-.013a15.4,15.4,0,0,1,1.965.218,13.72,13.72,0,0,1,3.383.958,3.438,3.438,0,0,1,1.714,1.735A1.762,1.762,0,0,1-226.8-18.4a2.3,2.3,0,0,1-1.776,1.167,2.891,2.891,0,0,1-1.249-.281.217.217,0,0,1-.021-.3c.026-.034.4-.228.616-.345a1.4,1.4,0,0,0,.285-.2c.183-.162.346-.338.328-.543-.026-.269-.308-.435-.58-.541a21.213,21.213,0,0,0-5.031-1c-.48-.028-1.161-.052-1.161-.052l.144,6.765s.564.108,1.008.181c.256.038,1.336.135,1.623.142a14.915,14.915,0,0,0,6.632-1.086,6.908,6.908,0,0,0,2.3-1.627,4.729,4.729,0,0,0,1.118-3.511,9.163,9.163,0,0,0-1.949-4.2,23.038,23.038,0,0,0-9.047-6.351,28.826,28.826,0,0,0-10.063-2.268,16.739,16.739,0,0,0-3.865.289c-.144.04-.286.088-.418.116a1.188,1.188,0,0,0-.313.13c-.024.022-.05.048-.05.048s.062.034.12.06c.105.046.549.073.779.114a.75.75,0,0,1,.5.3.294.294,0,0,1-.005.373c-.226.276-1.075.228-1.447.17-.388-.063-.871-.181-.96-.519a1.585,1.585,0,0,1,.29-1.15,2.77,2.77,0,0,1,1.86-1.333,18.97,18.97,0,0,1,3.922-.616,22.887,22.887,0,0,1,7.62,1.128,36.114,36.114,0,0,1,4.737,1.842,36.973,36.973,0,0,1,3.45,1.943c.278.183,1.907,1.38,2.159,1.59.528.431,1.219,1.051,1.717,1.547a16.03,16.03,0,0,1,2.756,3.591c.139.281.249.555.429.879a7.681,7.681,0,0,1,.375.966c.044.189.108.468.118.478a6.851,6.851,0,0,1,.126.892Zm11.263.492c.049,0,.061.007.106.013a8.337,8.337,0,0,1,2.185.521,2.26,2.26,0,0,1,1.182,1.113,3.433,3.433,0,0,1,.074,2.911,3.464,3.464,0,0,1-1.591,1.515,5.9,5.9,0,0,1-1.984.537,7.069,7.069,0,0,1-3.749-.67,4.5,4.5,0,0,1-1.9-1.616,1.608,1.608,0,0,1,.076-1.729,3.365,3.365,0,0,1,2.8-.948,11.619,11.619,0,0,1,2.714.495,5.328,5.328,0,0,1,1.016.467.341.341,0,0,1,.1.333c-.158.48-1.324.733-1.66.784-.9.138-1.371-.2-2.4-.608a3.54,3.54,0,0,0-.854-.234c-.465-.044-1.027.084-1.115.594-.046.263.262.507.5.609a3.748,3.748,0,0,0,1.54.331,8.071,8.071,0,0,0,4.7-1.165.729.729,0,0,0,.358-.551c0-.03-.043-.284-.125-.31-.012-.005-.025,0-.034,0-.03-.009-.081-.091-.123-.146a2.1,2.1,0,0,0-.548-.31,13.569,13.569,0,0,0-3.349-.615c-.88-.075-2.264-.192-2.6-.24a3.889,3.889,0,0,1-1.012-.25,1.265,1.265,0,0,1-.675-.768,2.392,2.392,0,0,1,.377-1.819c.874-1.257,2.92-1.734,4.451-1.923a10.212,10.212,0,0,1,5.329.59c.225.12.341.232.292.472a1.169,1.169,0,0,1-.844.868,9.278,9.278,0,0,1-1.712.214,28.461,28.461,0,0,0-5.542.5,1.147,1.147,0,0,0-.431.179c-.261.283.486.364.646.4a.777.777,0,0,0,.106.016l3.691.437m5.47,6.559c-.708-.26-.868-1.4-.9-1.981a17.971,17.971,0,0,1,1.018-6.266c.181-.5.441-1.323,1-1.277a1.291,1.291,0,0,1,.88.639c.555.782,1.284,1.843,1.768,2.581.541.827,1.06,1.661,1.57,2.415a1.155,1.155,0,0,0,.19.236c.093.075.176.079.214.009.017-.027-.016-.978-.04-1.169-.04-.3-.058-.549-.092-.811a22.374,22.374,0,0,0-.527-2.556c-.21-.81-.465-1.654-.657-2.438a3.214,3.214,0,0,1-.116-.754.4.4,0,0,1,.592-.414c.72.254,1.674,1.817,1.952,2.359.095.183.469,1.116.553,1.377a11.316,11.316,0,0,1,.562,2.72,7.62,7.62,0,0,1-.388,3.265,3.561,3.561,0,0,1-.7,1.04,1.617,1.617,0,0,1-1.721.342,8.892,8.892,0,0,1-1.731-2.31c-.565-.986-1.537-2.914-1.687-3.131a.274.274,0,0,0-.151-.116c-.057-.017-.08.1-.095.179-.1.561-.163,3.188-.165,3.261a13.72,13.72,0,0,1-.165,2.06c-.083.349-.168.635-.488.781a.8.8,0,0,1-.677-.042m9.759-.168a2.6,2.6,0,0,1-.29-.286,5.017,5.017,0,0,1-.319-.513c-.044-.1-.078-.175-.11-.259a3.162,3.162,0,0,1-.1-1.83,7.938,7.938,0,0,1,.539-1.449.474.474,0,0,0,.036-.134c.013-.113-.17-.872-.181-1.116-.013-.372.276-.636.76-.687a.6.6,0,0,0,.109-.013c.193-.047.316-.416.422-.713.147-.416.377-1.051.377-1.051s-.611-.141-.938-.265a1.333,1.333,0,0,1-.807-.651c-.2-.392-.068-.61.342-.737.15-.048,1.337-.276,1.711-.329.467-.069.907-.127,1.352-.182.387-.047,2.161-.253,2.726-.238a2.23,2.23,0,0,1,1.923,1.108c.271.389.455.851.047,1.1a9.226,9.226,0,0,1-3.032.414c-.593.006-1.413,0-1.413,0l-.414,1.383s1.456-.015,2.274-.019a2.919,2.919,0,0,1,.509.034c.418.093.562.414.579.876.023.541-.079.791-.51.863-.223.036-2.724.05-3.063.09-.212.023-.435.056-.435.056s-.181.471-.338.948c-.159.5-.294,1-.294,1s.127.005.232.005a2.84,2.84,0,0,0,.494-.048c.763-.14,1.9-.308,2.828-.454.5-.08.752-.116,1.016.216a1.456,1.456,0,0,1,.362.894c.014.334-.24.555-.551.793a9.229,9.229,0,0,1-3.919,1.707,2.525,2.525,0,0,1-1.227-.132,2.213,2.213,0,0,1-.444-.206S-193.164-12.675-193.229-12.725Zm15.813-6.95a13.44,13.44,0,0,0-1.875,2.212c-.531.758-1.031,1.625-1.509,2.3a6.443,6.443,0,0,0-.4.71,1.587,1.587,0,0,0,.651-.028,5.443,5.443,0,0,0,2.1-.985,4.441,4.441,0,0,0,1.522-2.4,2.577,2.577,0,0,0-.146-1.772.239.239,0,0,0-.337-.038m-5.121,7.907s-.2.6-.354,1.069c-.259.811-.827,3-.959,3.675-.2,1.007-.762,3.648-.791,3.7a.352.352,0,0,1-.161.162c-.232.136-.326.091-.607-.059a2.638,2.638,0,0,1-.96-.75,4.263,4.263,0,0,1-.312-2.851,24.885,24.885,0,0,1,1.811-6.727.092.092,0,0,0,0-.1,5.532,5.532,0,0,1-.5-2.222c0-2.155,1.241-4.288,2.63-6,.1-.13.786-.947,1.1-.931s.361.377.314.679a9.269,9.269,0,0,1-1.335,2.849,8.389,8.389,0,0,0-.919,2.185,6.522,6.522,0,0,0-.143.844,5.091,5.091,0,0,0,.061.523s.876-1.226,1.454-1.983c.316-.416.543-.69.806-.987s1.294-1.368,1.589-1.65a5.76,5.76,0,0,1,1.568-1.188,1.377,1.377,0,0,1,1.53,0,3.562,3.562,0,0,1,1.275,2.612,6.221,6.221,0,0,1-.607,3.3,6.832,6.832,0,0,1-2.448,2.661,6.535,6.535,0,0,1-3.659,1.2c-.171,0-.371-.014-.371-.014" transform="translate(1352.425 2191.815)" fill="#231f20"/></g></svg>