<svg xmlns="http://www.w3.org/2000/svg" width="115" height="59" viewBox="0 0 115 59"><g transform="translate(-1201 -2309)"><rect width="115" height="59" transform="translate(1201 2309)" fill="none"/><g transform="translate(1201 2317)"><rect width="114.999" height="43.233" fill="#3b5998"/><g transform="translate(10.219 12.384)"><path d="M134.093,34.781a3.957,3.957,0,0,0-3.69,1.529v-.389h0V28.644l-3.763.456V46.842H130.4V45.789a6.945,6.945,0,0,0,1.579,1.005,4.586,4.586,0,0,0,6.1-2.788,9.776,9.776,0,0,0,.144-5.713A4.395,4.395,0,0,0,134.093,34.781Zm.562,7.684a1.937,1.937,0,0,1-2.2,1.7A2.609,2.609,0,0,1,131.7,44a2.562,2.562,0,0,1-1.239-1.906h0a8.383,8.383,0,0,1,.279-3.395,1.936,1.936,0,0,1,1.744-1,1.914,1.914,0,0,1,2.159,1.675A10.876,10.876,0,0,1,134.656,42.465Z" transform="translate(-82.108 -28.644)" fill="#fff" fill-rule="evenodd"/><path d="M164.412,43a7.526,7.526,0,0,0-3.933,0,4.738,4.738,0,0,0-3.686,3.723,12.624,12.624,0,0,0-.215,3.314,5.067,5.067,0,0,0,4.111,4.867c.034.008.069.014.1.022h0l.018,0c.093.019.186.036.279.05l.094.008h0c.117.022.258.038.406.049a7.569,7.569,0,0,0,1.577.027h.008c.026,0,.051,0,.077,0a5.159,5.159,0,0,0,4.94-4.115,8.957,8.957,0,0,0,.01-3.977A4.942,4.942,0,0,0,164.412,43Zm.159,7.274c-.013.078-.026.156-.043.233a2.129,2.129,0,0,1-4.192-.223,14.434,14.434,0,0,1-.017-2.55,2.145,2.145,0,0,1,4.214-.447A11.477,11.477,0,0,1,164.571,50.278Z" transform="translate(-99.089 -36.648)" fill="#fff" fill-rule="evenodd"/><path d="M32.463,34.975H29.777V33.189c.2-1.689,2.986-1.368,2.986-1.368v-2.9h0c-.1-.023-5.549-1.317-6.631,2.833a0,0,0,0,1,0,0l-.007.027a21.069,21.069,0,0,0-.157,3.194H23.636v3.177h2.472v8.642h3.6V38.152h2.754l.31-3.177Z" transform="translate(-23.636 -28.681)" fill="#fff" fill-rule="evenodd"/><path d="M53.033,44.454c-.044-.049-.088-.1-.125-.135h0l-.017-.017c-.052-.054-.089-.091-.089-.091h0a3.717,3.717,0,0,0-1.832-1.272,4.6,4.6,0,0,0-5.827,3.154,10.18,10.18,0,0,0-.207,4.8,4.637,4.637,0,0,0,5.933,4.05,3.553,3.553,0,0,0,2.049-1.43,1.166,1.166,0,0,0,.116-.188V54.85h3.512v-11.9H53.034v1.507Zm-.309,5.99a1.9,1.9,0,0,1-2.061,1.72,1.993,1.993,0,0,1-2.025-1.655,10.311,10.311,0,0,1,.075-3.364,1.9,1.9,0,0,1,2.056-1.453A1.869,1.869,0,0,1,52.72,47.4,14.248,14.248,0,0,1,52.724,50.443Z" transform="translate(-35.619 -36.64)" fill="#fff" fill-rule="evenodd"/><path d="M84.264,54.028c-.163-.6-.348-1.184-.528-1.752l-.169-.632s-4.4,2.113-5.089-1.9a8.647,8.647,0,0,1,.047-2,2.157,2.157,0,0,1,2.122-2.009,4.74,4.74,0,0,1,1.227.049c.546.092,1.078.256,1.675.4.208-.635.42-1.263.617-1.9.031-.1.057-.185.077-.261h0l.1-.38a.449.449,0,0,0-.165-.154h0a1.973,1.973,0,0,0-.543-.254c-.108-.039-.216-.074-.324-.108s-.16-.049-.16-.049h0a9.254,9.254,0,0,0-3.55-.229A5.04,5.04,0,0,0,74.857,47.1a9.641,9.641,0,0,0,.049,3.929,4.774,4.774,0,0,0,3.547,3.787A8.719,8.719,0,0,0,82.284,55a12.055,12.055,0,0,0,1.869-.563l.211-.074-.1-.339Z" transform="translate(-52.611 -36.671)" fill="#fff" fill-rule="evenodd"/><path d="M108.984,49.411a20.177,20.177,0,0,0-.122-2.462A4.4,4.4,0,0,0,105,42.957a9.979,9.979,0,0,0-2.565-.04,4.682,4.682,0,0,0-4.443,3.842,13.833,13.833,0,0,0-.07,4.045,4.36,4.36,0,0,0,2.917,3.873h0l.022,0h0a11.377,11.377,0,0,0,7.825-.451l-.133-.487h0c-.153-.649-.337-1.292-.511-1.936l-.019-.063s-.069.025-.191.064h-.009c-.144.038-.287.082-.429.129l-.079.025a14.156,14.156,0,0,1-1.972.412,10.333,10.333,0,0,1-1.922.011,1.89,1.89,0,0,1-1.815-2.066h6.923s.442-.006.461-.01c0,0,0-.117,0-.131ZM105.6,47.788h-4.066a2.191,2.191,0,0,1,.841-2.019,2.247,2.247,0,0,1,2.392-.068C105.559,46.14,105.622,46.932,105.6,47.788Z" transform="translate(-65.742 -36.71)" fill="#fff" fill-rule="evenodd"/><path d="M227.626,35.09h-3.992l-3.467,5.421V28.669l-3.763.456V46.868h3.763v-5.43l3.467,5.438h3.992l-3.763-5.9Z" transform="translate(-133.064 -28.658)" fill="#fff" fill-rule="evenodd"/><path d="M194.1,43a7.525,7.525,0,0,0-3.934,0,4.738,4.738,0,0,0-3.685,3.723,12.626,12.626,0,0,0-.215,3.315,5.066,5.066,0,0,0,4.111,4.867l.1.022h0l.017,0c.093.019.187.036.28.05l.094.008h0c.118.022.258.038.4.05a7.579,7.579,0,0,0,1.578.027l.008,0,.076,0a5.161,5.161,0,0,0,4.941-4.115,8.971,8.971,0,0,0,.011-3.978A4.944,4.944,0,0,0,194.1,43Zm.159,7.274c-.013.079-.026.156-.043.233a2.129,2.129,0,0,1-4.192-.223,14.428,14.428,0,0,1-.018-2.549,2.145,2.145,0,0,1,4.215-.447A11.5,11.5,0,0,1,194.261,50.273Z" transform="translate(-115.943 -36.645)" fill="#fff" fill-rule="evenodd"/></g></g></g></svg>