<svg xmlns="http://www.w3.org/2000/svg" width="115" height="59" viewBox="0 0 115 59"><g transform="translate(-367 -2143)"><rect width="115" height="59" transform="translate(367 2143)" fill="none"/><g transform="translate(366.64 2153.434)"><path d="M90.229,34.46A9.49,9.49,0,1,1,80.739,25,9.343,9.343,0,0,1,90.229,34.46Zm-4.154,0a5.349,5.349,0,1,0-10.671,0,5.349,5.349,0,1,0,10.671,0Z" transform="translate(-40.656 -14.068)" fill="#ea4335"/><path d="M138.229,34.46A9.49,9.49,0,1,1,128.74,25,9.343,9.343,0,0,1,138.229,34.46Zm-4.154,0a5.349,5.349,0,1,0-10.671,0,5.349,5.349,0,1,0,10.671,0Z" transform="translate(-68.184 -14.068)" fill="#fbbc05"/><path d="M185.365,25.572V42.555c0,6.986-4.12,9.839-8.99,9.839a9.008,9.008,0,0,1-8.385-5.574l3.617-1.506a5.225,5.225,0,0,0,4.764,3.357c3.118,0,5.05-1.923,5.05-5.544V41.765h-.145a6.441,6.441,0,0,1-4.981,2.15,9.466,9.466,0,0,1,0-18.915,6.555,6.555,0,0,1,4.981,2.115h.145v-1.54h3.945Zm-3.651,8.922c0-3.331-2.222-5.766-5.05-5.766a5.47,5.47,0,0,0-5.267,5.766,5.429,5.429,0,0,0,5.267,5.7C179.492,40.192,181.714,37.791,181.714,34.494Z" transform="translate(-95.701 -14.068)" fill="#4285f4"/><path d="M219.552,3V30.722H215.5V3Z" transform="translate(-123.384 -1.451)" fill="#34a853"/><path d="M243.134,37.567l3.224,2.15a9.416,9.416,0,0,1-7.882,4.192,9.255,9.255,0,0,1-9.387-9.46c0-5.625,4.047-9.46,8.922-9.46,4.909,0,7.31,3.907,8.095,6.018l.431,1.075L233.892,37.32a4.814,4.814,0,0,0,4.585,2.866,5.4,5.4,0,0,0,4.657-2.619Zm-9.925-3.4,8.453-3.51a3.662,3.662,0,0,0-3.51-2A5.189,5.189,0,0,0,233.21,34.164Z" transform="translate(-131.178 -14.062)" fill="#ea4335"/><path d="M15.257,17.931V13.917H28.782a13.3,13.3,0,0,1,.2,2.422,13.254,13.254,0,0,1-3.476,9.387,13.432,13.432,0,0,1-10.244,4.12A14.9,14.9,0,0,1,.36,15.158,14.9,14.9,0,0,1,15.262.47,14,14,0,0,1,25.327,4.517L22.5,7.349a10.23,10.23,0,0,0-7.238-2.866A10.536,10.536,0,0,0,4.723,15.158,10.536,10.536,0,0,0,15.257,25.834,9.827,9.827,0,0,0,22.674,22.9a8.318,8.318,0,0,0,2.175-4.969Z" fill="#4285f4"/></g></g></svg>