<svg xmlns="http://www.w3.org/2000/svg" width="115" height="59" viewBox="0 0 115 59"><g transform="translate(-15 -2309)"><rect width="115" height="59" transform="translate(15 2309)" fill="none"/><g transform="translate(27 2308)"><path d="M27.36,26.026V40.474h-4.6V22.313l9.5.009c4.033,0,5.407,2.844,5.407,5.427V40.474H33.072v-12.7c0-1.082-.56-1.748-1.911-1.748h-3.8Zm31.274-.217a3.524,3.524,0,0,0-3.3,1.905,4.709,4.709,0,0,0-.44,1.97h7.076c-.091-1.97-.984-3.875-3.339-3.875M54.9,32.814A3.817,3.817,0,0,0,58.97,36.9a5.172,5.172,0,0,0,4.216-1.731l2.841,2.712a9.078,9.078,0,0,1-7.09,2.886c-4.4,0-8.616-2.4-8.616-9.4,0-5.978,3.679-9.362,8.513-9.362,4.9,0,7.73,3.962,7.73,9.152v1.657H54.9m-8.459,7.637A4.952,4.952,0,0,1,41.1,35.267v-17.9h4.592v4.948h3.462v3.712H45.694v8.953a1.432,1.432,0,0,0,1.594,1.641h1.868v3.831H46.438M18.669,19.8H14.038V15.4h4.631v4.4Zm.012,20.861c-3.468-.333-4.647-2.437-4.647-4.864l.005-13.488H18.68V40.665Zm55.192-.388c-3.461-.334-4.635-2.434-4.635-4.858V14.779h4.635v25.5Zm16.2-22.515C85.874-2.716,46.124-4.012,20.5,11.585v1.722C46.1.154,82.4.231,85.706,19.092c1.106,6.236-2.408,12.739-8.684,16.476v4.89c7.554-2.764,15.3-11.726,13.053-22.7M43.5,53.589c-17.683,1.635-36.109-.932-38.688-14.75-1.262-6.812,1.841-14.032,5.958-18.517v-2.4C3.36,24.422-.662,32.649,1.654,42.37,4.609,54.835,20.423,61.9,44.562,59.553c9.55-.932,22.051-4,30.741-8.773V44c-7.885,4.7-20.934,8.578-31.8,9.585" transform="translate(0 0)" fill="#0071c5"/><path d="M256.416,48.264c0-.225-.131-.3-.431-.3H255.7V48.6c.042,0,.252.008.289.008.3,0,.431-.1.431-.311v-.037Zm.452,1.577h-.343a.082.082,0,0,1-.071-.045L255.985,49a.106.106,0,0,0-.065-.035h-.21v.787a.084.084,0,0,1-.084.087h-.311a.091.091,0,0,1-.077-.087V47.762c0-.115.045-.163.142-.178s.407-.024.568-.024c.57,0,.915.168.915.7V48.3a.566.566,0,0,1-.421.592l.485.821a.331.331,0,0,1,.014.059.066.066,0,0,1-.074.068m-.815-2.64a1.532,1.532,0,1,0,1.53,1.537,1.538,1.538,0,0,0-1.53-1.537m0,3.381a1.844,1.844,0,1,1,1.849-1.844,1.841,1.841,0,0,1-1.849,1.844" transform="translate(-177.186 -32.115)" fill="#0071c5"/></g></g></svg>