<svg xmlns="http://www.w3.org/2000/svg" xmlns:xlink="http://www.w3.org/1999/xlink" width="658.641" height="234.233" viewBox="0 0 658.641 234.233"><defs><filter id="a" x="627.641" y="150.391" width="31" height="31" filterUnits="userSpaceOnUse"><feOffset input="SourceAlpha"/><feGaussianBlur stdDeviation="3" result="b"/><feFlood flood-color="#47c0c8"/><feComposite operator="in" in2="b"/><feComposite in="SourceGraphic"/></filter></defs><g transform="translate(0.634 -97.81)"><path d="M-3191.5-4452.62l18.331-15.276,12.22,9.165,6.11-15.274,12.221,21.385h12.22l6.11,9.165,9.166-58.046,9.165,24.44,15.275,12.221,6.11-27.5,15.275,76.375,9.165-6.109,9.165,21.385h15.275l6.11,36.661h9.165l6.11,21.385,9.165,3.055,6.11-9.165h18.331l6.11-36.661,6.11,91.651,9.165-30.55,9.165-12.22,6.11,9.165h9.165l6.11,36.661,15.275-64.156,6.11,9.165,27.495-3.054,3.055,12.22,12.22,3.056,9.165-9.165,3.055,6.109,12.22,3.056,6.11,9.164,9.166-12.22,6.11,9.165,9.165,15.276,6.111-18.331h9.165l6.11,51.936,9.165,6.11,9.165-6.11h15.275l9.165-12.22,6.11-42.77,6.11,27.495,9.166,9.165,6.11,15.276,9.165-12.221,6.11,3.056,9.165-36.661,6.11-9.165,27.5,3.056,6.11-15.275,29.716-21.864,25.274,43.249h15.275l9.165-9.165,11.585-24.685,13.5,21.5" transform="translate(3191.508 4603.214)" fill="none" stroke="#47c0c8" stroke-width="2"/><g transform="translate(468.007 -53.8)"><g transform="matrix(1, 0, 0, 1, -468.64, 151.61)" filter="url(#a)"><g transform="translate(636.64 159.39)" fill="#fafafa" stroke="#47c0c8" stroke-width="2"><circle cx="6.5" cy="6.5" r="6.5" stroke="none"/><circle cx="6.5" cy="6.5" r="5.5" fill="none"/></g></g><circle cx="2.5" cy="2.5" r="2.5" transform="translate(172 315)" fill="#5d67c0"/></g></g></svg>