<svg xmlns="http://www.w3.org/2000/svg" width="196.567" height="48.559" viewBox="0 0 196.567 48.559"><g transform="translate(260.427 -0.942)"><path d="M-406.979-18477.791l-.153-.154v-1.658a1.6,1.6,0,0,0-.609-.232h-.042l-.023,1.105-.042.047a5.973,5.973,0,0,1-3.287-.455l-3.05-1.488a9.71,9.71,0,0,0-2.525-.693,2.036,2.036,0,0,1,.107,2.027l-.084.107a1.078,1.078,0,0,0-.391-.768,3.453,3.453,0,0,1-.307.725.83.83,0,0,1-.372.285c0-.279-.019-.7-.349-.828a1.3,1.3,0,0,1-.869.934h-.107a.627.627,0,0,0,.172-.7c-.786-.334-1.116-1.26-1.85-1.678a8.786,8.786,0,0,1-3.092.2v-4.133a5.973,5.973,0,0,0,2.134-.066l.019-.027-.214-.213c.758-.061,1.33-.875,1.548-1.525a5.661,5.661,0,0,0,.149-2.654c-.209.139-.377.344-.59.482a1.682,1.682,0,0,1-1.762.107,1.36,1.36,0,0,1-.521-1.182,10.748,10.748,0,0,1,1.023-2.654.325.325,0,0,0-.177-.367c-.772.033-1.683.205-2.241-.479-.553-.646-.428-1.566-.781-2.287a2.551,2.551,0,0,0,1.172.869,4.34,4.34,0,0,1-.088-1.158,1.407,1.407,0,0,0,.939.893c.716.154,1.581-.014,2.046.7.879,1.566-.665,2.771-.823,4.227a.543.543,0,0,0,.126.391.482.482,0,0,0,.5.135c1.669-.451,1.069-2.338,1.7-3.463a19.891,19.891,0,0,1,2.548-3.377,22.644,22.644,0,0,0,1.809,1.656,10,10,0,0,0,1.046-3.027c.86.395,1.8.623,2.673.986a18.482,18.482,0,0,0-.149-2.395,4.359,4.359,0,0,0,1.032.055c.186,0,.372,0,.558.006a3.8,3.8,0,0,1-.823,2.85,4.372,4.372,0,0,0,.428.525c.07,0,.149,0,.223,0a.82.82,0,0,0,.628-.154c.242-.125.391-.023.539.162a.628.628,0,0,0,.484-.045.378.378,0,0,1-.2.32.613.613,0,0,1-.251.055c-.1.172-.274.363-.535.252-.112-.131-.3-.084-.428-.064l-.028.018a2.727,2.727,0,0,0,.981.68.624.624,0,0,1,.5-.02c.246.057.135.377.349.455l.279-.021c-.153.283-.493.2-.716.371-.432.074-.6-.344-.958-.437l-.456-.348a2.364,2.364,0,0,0,.5,1.176c.13.1.316.064.428.2.177.088,0,.424.288.367h.3c-.153.311-.53.172-.739.395a.62.62,0,0,1-.567-.135,1.043,1.043,0,0,1-.149-.543,4.272,4.272,0,0,1-.832-1.674c-.065.078-.13.172-.088.236a.39.39,0,0,1,0,.5c-.06.088,0,.27.051.373a.943.943,0,0,1-.367-.262c-.135-.037-.432-.236-.139-.65a4.067,4.067,0,0,1,.284-.832.905.905,0,0,0-.3-.408,14.455,14.455,0,0,1-3.836,2.105,1.4,1.4,0,0,0-.758.869.589.589,0,0,0,.284.465,2.441,2.441,0,0,0,1.427-.107,1.929,1.929,0,0,1,1.73.061c.814.508.46,1.711,1.483,1.986a1.842,1.842,0,0,0-1.223,1.018,2.234,2.234,0,0,0,.26,1.879c.823.93,2.608.027,2.98,1.516a.726.726,0,0,1-.237.725.906.906,0,0,1-.5.893l-.232.107c.056-.191.167-.41.06-.613a.836.836,0,0,0-.372-.387,1.74,1.74,0,0,1-.214.7.888.888,0,0,1-.7.344,1.085,1.085,0,0,0,.088-.721.507.507,0,0,0-.26-.3,1.31,1.31,0,0,1-1,.826.632.632,0,0,0,.13-.586c-.042-.432-.563-.287-.716-.654a1.613,1.613,0,0,0-1.53-.893c.339-.562.883-1.1.632-1.852a1.153,1.153,0,0,0-.828-.826l-.628-.02a1.809,1.809,0,0,0-1.116-1.395.18.18,0,0,1-.084-.014c-.037-.014-.074-.027-.112.014a3.11,3.11,0,0,1,.223,3.064c-.414,1.152-1.7,1.389-2.376,2.352,3.064-.176,5.523,1.111,7.987,2.377a5.78,5.78,0,0,0,1.66.436c.06-.213-.056-.525.214-.631a3.022,3.022,0,0,1,2.855.7c.409.264.209.785.26,1.193a5.544,5.544,0,0,0,1.348.326,15.908,15.908,0,0,0,5.6-.2.613.613,0,0,0,.325-.131c.042-.354-.107-.789.135-1.064a3.118,3.118,0,0,1,3.027-.8c.228.131.158.387.172.609,1.678-.135,3.022-1.2,4.528-1.809a11.227,11.227,0,0,1,5.156-.961l.028-.02c-.73-1-2.208-1.34-2.506-2.637a3.15,3.15,0,0,1,.325-2.8,1.256,1.256,0,0,0-.976.6,2.517,2.517,0,0,0-.33.811,1.266,1.266,0,0,0-1.3.482,1.4,1.4,0,0,0,0,1.5l.47.715a1.718,1.718,0,0,0-1.609.963c-.2.311-.772.242-.669.734a.54.54,0,0,0,.153.395,1.018,1.018,0,0,1-.767-.395c-.144-.107-.121-.371-.307-.391-.284.2-.228.59-.167.875l.06.105a.8.8,0,0,1-.544-.152,1.126,1.126,0,0,1-.349-.828c-.135-.033-.265.135-.349.242a.784.784,0,0,0-.065.543l.093.178a1.033,1.033,0,0,1-.744-.721,1.886,1.886,0,0,1-.023-.279.747.747,0,0,1-.219-.768c.521-1.7,3.138-.236,3.31-2.264a1.687,1.687,0,0,0-.628-1.785,3.317,3.317,0,0,0-.651-.3c.99-.334.665-1.627,1.627-2.092a2.072,2.072,0,0,1,1.59.037,2.137,2.137,0,0,0,1.5.07.478.478,0,0,0,.2-.562c-.6-1.014-1.795-1.037-2.673-1.59a10.051,10.051,0,0,1-1.92-1.242.977.977,0,0,0-.3.344c.046.34.237.613.3.939a.315.315,0,0,1-.112.529,1.245,1.245,0,0,1-.409.322c.019-.1.088-.187.065-.3a.4.4,0,0,1-.107-.441c.107-.094.023-.205.019-.32l-.047-.047a4.436,4.436,0,0,1-.846,1.742.539.539,0,0,1-.153.5.59.59,0,0,1-.563.105c-.2-.213-.572-.092-.725-.395a.763.763,0,0,1,.177,0,.369.369,0,0,0,.307-.061.41.41,0,0,1,.26-.391c.07-.074.181-.018.265-.074a2.869,2.869,0,0,0,.539-1.2h-.065c-.311.316-.7.428-1.018.707a.455.455,0,0,1-.572-.07.542.542,0,0,1-.5-.24c.121.018.307.068.4-.047a.444.444,0,0,1,.2-.367.443.443,0,0,1,.479.018.334.334,0,0,0,.353-.125,5.507,5.507,0,0,0,.7-.572.4.4,0,0,0-.437.006c-.144.064-.284.129-.437-.023l-.135-.172a.543.543,0,0,1-.432-.266.161.161,0,0,1-.023-.107,2.489,2.489,0,0,0,.456.047.489.489,0,0,1,.372-.2.7.7,0,0,1,.46.176.662.662,0,0,1,.284,0c.167.023.325.047.437-.115l.321-.395a3.738,3.738,0,0,1-.8-2.852,8.251,8.251,0,0,0,1.567-.078c-.088.744-.084,1.646-.172,2.395a24.042,24.042,0,0,0,2.72-.986,11.023,11.023,0,0,0,1.069,3.051,22.314,22.314,0,0,0,1.785-1.656,12.6,12.6,0,0,1,2.869,4.139c.13.98.149,2.148,1.2,2.607a.926.926,0,0,0,.59.07.489.489,0,0,0,.26-.307c.093-.832-.5-1.437-.735-2.158a2.249,2.249,0,0,1,.014-2.395c.642-.836,1.915-.135,2.571-.934a2.119,2.119,0,0,0,.325-.521,3.169,3.169,0,0,1-.107,1.131,4.879,4.879,0,0,0,.651-.3,2.174,2.174,0,0,0,.549-.543c-.409.984-.288,2.52-1.655,2.779a3.381,3.381,0,0,1-1.153-.061.45.45,0,0,0-.4.2v.26c.363,1.135,1.516,2.26.762,3.529a1.391,1.391,0,0,1-1.437.41,2.53,2.53,0,0,1-1.172-.758l-.07.213c-.126,1.469.023,3.148,1.395,3.906a2.7,2.7,0,0,0,.344.078l-.2.223.047.043a6.678,6.678,0,0,0,2.088.023l.023,4.16a9.074,9.074,0,0,1-3.115-.2c-.739.418-1,1.283-1.785,1.613a.47.47,0,0,0-.088.455.737.737,0,0,0,.2.3,1.08,1.08,0,0,1-.846-.609c-.046-.107-.084-.213-.13-.33a.665.665,0,0,0-.344.619l.019.213a1.125,1.125,0,0,1-.656-.98c-.228.037-.339.32-.409.525l-.028.2a1.925,1.925,0,0,1-.149-1.875l.177-.24a6.145,6.145,0,0,0-1.5.311c-2.525.656-4.556,2.887-7.453,2.279l-.019-1.107a1.241,1.241,0,0,0-.651.2v1.65c-.911.818-2.194.828-3.375,1.027-.551.027-1.11.049-1.667.049A9.374,9.374,0,0,1-406.979-18477.791Zm.391-.418a3.568,3.568,0,0,0,.874.371,15.215,15.215,0,0,0,5.463.26,5.7,5.7,0,0,0,2.269-.65l-.028-2.943a10.4,10.4,0,0,1-1.8.484,14.41,14.41,0,0,1-6.774-.5Zm10.368-.977a5.429,5.429,0,0,0,2.418-.391l2.938-1.414a11.377,11.377,0,0,1,3.7-.98,2.3,2.3,0,0,1,.535-.023,1.3,1.3,0,0,0,.86-.158,1.218,1.218,0,0,0,.563-.893,5.023,5.023,0,0,0-.088-1.957,10.5,10.5,0,0,0-5.068.785l-2.985,1.441a6.24,6.24,0,0,1-2.873.545Zm-23.014-5.816a4.542,4.542,0,0,0-.07,2,1.24,1.24,0,0,0,.8.963,11.56,11.56,0,0,1,4.9,1.064c1.683.734,3.217,1.984,5.244,1.762v-3.021a6.136,6.136,0,0,1-2.766-.5c-2.206-1.113-4.4-2.336-7.049-2.336A8.734,8.734,0,0,0-419.235-18485Zm36.381,3.4a5.563,5.563,0,0,0,1.66.1v-3.018a10.093,10.093,0,0,1-1.985-.152A3.248,3.248,0,0,0-382.854-18481.6Zm-40.435.084a5.365,5.365,0,0,0,1.637-.107,3.419,3.419,0,0,0,.456-2.738l-.153-.33a9.09,9.09,0,0,1-1.939.148Zm173.6,1.594c0-1.492.958-2.26,2.143-2.988a1.176,1.176,0,0,1-.786-1.131c0-.822.539-1.227,1.13-1.664a3.379,3.379,0,0,1-2.162-3.18c0-1.953,1.358-3.623,4.119-3.623a6.953,6.953,0,0,1,1.878.229h3.468v1.152h-2.032a2.8,2.8,0,0,1,.921,2.279c0,1.609-1.055,3.523-4.277,3.523a3.146,3.146,0,0,1-.879-.1c-.381.326-.558.521-.558.865,0,.4.153.553,1.478.859l1.836.424c1.688.387,3.222.939,3.222,2.971,0,2.414-2.608,3.217-4.9,3.217C-247.467-18477.09-249.689-18477.855-249.689-18479.926Zm1.609-.209c0,1.414,1.915,1.781,3.273,1.781,1.9,0,2.934-.8,2.934-1.842,0-.725-.288-1.223-1.818-1.59l-2.706-.627C-247.355-18481.8-248.081-18481.115-248.081-18480.135Zm.325-8.852a2.377,2.377,0,0,0,2.566,2.51,2.377,2.377,0,0,0,2.566-2.51,2.3,2.3,0,0,0-2.566-2.377A2.3,2.3,0,0,0-247.755-18488.986Zm-154.43,10.734a10.125,10.125,0,0,0-.112-1.738h.544a5.143,5.143,0,0,0-.065,1.609c.046.115.163.139.26.172a.362.362,0,0,0,.33-.2,7.361,7.361,0,0,0-.028-1.5l-.06-.084a.679.679,0,0,1,.246-.027,1.031,1.031,0,0,0,.251-.02,7.627,7.627,0,0,0-.13,1.744.636.636,0,0,1-.325.348,1.147,1.147,0,0,1-.313.045A.612.612,0,0,1-402.186-18478.252Zm-1.613.238a1.023,1.023,0,0,0,.13-.629,4.024,4.024,0,0,0-.107-1.395l1.111.066v.348a.66.66,0,0,0-.637-.111v.549c.149.018.363.07.484-.043l.019.41a.742.742,0,0,0-.474-.107l-.028.7a.982.982,0,0,0,.59,0l.135-.064v.367c-.06,0-.12,0-.18,0A7.622,7.622,0,0,1-403.8-18478.014Zm3.417-1.828-.107-.236a4,4,0,0,0,.674-.094,1.667,1.667,0,0,1,.088.395l.149.545a4.709,4.709,0,0,0,.219-1c.232-.037.442-.125.679-.152a6.352,6.352,0,0,0-.065,1.789c.033.043.014.117.037.172a1.149,1.149,0,0,1-.456.131,8.053,8.053,0,0,0,.047-1.572,6.218,6.218,0,0,0-.325,1.35,2.211,2.211,0,0,1-.312.068,4.96,4.96,0,0,0-.3-1.287,5.47,5.47,0,0,0,.07,1.613,3.04,3.04,0,0,1-.5.088A6.594,6.594,0,0,0-400.382-18479.842Zm-4.287,1.721a6.914,6.914,0,0,0,.046-1.59,3.651,3.651,0,0,0-.288,1.223.927.927,0,0,1-.33-.027,7.713,7.713,0,0,0-.279-1.32,3.855,3.855,0,0,0,.047,1.516l-.465-.1a4.379,4.379,0,0,0,.088-1.66.885.885,0,0,0-.088-.324l.679.148a4.538,4.538,0,0,0,.2.986,4.026,4.026,0,0,0,.2-.9c.2.037.474.027.7.088l-.093.248a10.16,10.16,0,0,0,.065,1.775Zm-5.012-1.613c-.037-.037.07-.1.07-.172a10.947,10.947,0,0,0,0-1.461,11.683,11.683,0,0,0-.465,1.223l-.256-.088a8.421,8.421,0,0,0-.325-1.436,9.54,9.54,0,0,0,.019,1.631c-.116-.051-.232-.088-.33-.129a.611.611,0,0,0-.074-.029s.009-.051.014-.107a7.661,7.661,0,0,0,.042-1.762l-.06-.172.739.279a5.99,5.99,0,0,0,.2,1.051,2.853,2.853,0,0,0,.307-.9,5.066,5.066,0,0,1,.628.088l-.084.307.019,1.557.046.2a.323.323,0,0,1-.1.016A1.353,1.353,0,0,1-409.68-18479.734Zm14.352-1.828-.093-.172a1.63,1.63,0,0,0,.418-.061c.321-.068.637-.139.828.215a.792.792,0,0,1-.084.715c-.172.232-.456.271-.7.373a1.638,1.638,0,0,0,.084.715c-.135.107-.386.033-.567.09A4.926,4.926,0,0,0-395.328-18481.562Zm.391.023.019.717c.1-.023.2-.023.27-.131a.654.654,0,0,0,.06-.479.181.181,0,0,0-.2-.152A.263.263,0,0,0-394.937-18481.539Zm1.283-.391-.023-.2a5.352,5.352,0,0,1,.59-.236,7.273,7.273,0,0,0,.456,1.59l.107.105a3.2,3.2,0,0,1-.521.242.778.778,0,0,0-.042-.482,1.229,1.229,0,0,0-.521.223,1.013,1.013,0,0,0,.019.516,2.775,2.775,0,0,1-.544.182A7.131,7.131,0,0,0-393.654-18481.93Zm.153.865.325-.148-.2-.7Zm-18.923.26a.708.708,0,0,1-.279-.58,5.621,5.621,0,0,0-.116-1.7,6.147,6.147,0,0,1,.572.307l-.088.168.019,1.395a.5.5,0,0,0,.312.26.23.23,0,0,0,.232-.172,5.372,5.372,0,0,0-.079-1.482l.474.242a2.586,2.586,0,0,0-.079,1.031c0,.555-.231.709-.471.709A.875.875,0,0,1-412.423-18480.8Zm47.344-2.762,1.706-.631a2.719,2.719,0,0,0,2.836,2.105,2.451,2.451,0,0,0,2.641-2.371,2.162,2.162,0,0,0-1.437-2.166l-3.292-1.535a3.142,3.142,0,0,1-2.032-2.988c0-2.66,2.315-3.734,4.273-3.734,1.934,0,3.524.67,4.175,2.492l-1.725.572a2.3,2.3,0,0,0-2.45-1.646,2.094,2.094,0,0,0-2.4,2.2c0,1.34.921,1.764,1.8,2.145l2.45,1.074a3.651,3.651,0,0,1,2.511,3.543c0,1.287-.786,3.83-4.673,3.83A4.2,4.2,0,0,1-365.08-18483.566Zm126.023-3.062c0-2.283.744-5.883,4.77-5.883,3.254,0,4.426,2.818,4.426,5.479v.846h-7.434c.074,3.045,1.492,4.119,3.008,4.119a2.744,2.744,0,0,0,2.72-1.994l1.474.516a4.282,4.282,0,0,1-4.194,2.816C-238.313-18480.73-239.056-18484.332-239.056-18486.629Zm1.762-.824h5.667c0-2.031-.916-3.719-2.72-3.719C-236.109-18491.172-237.067-18489.771-237.294-18487.453Zm-53.932.824c0-2.283.749-5.883,4.77-5.883,1.725,0,2.934.8,3.719,2.967l-1.516.461c-.135-.461-.6-2.088-2.2-2.088-2.394,0-3.008,2.338-3.008,4.523,0,2.279.614,4.58,2.724,4.58a2.666,2.666,0,0,0,2.585-2.074l1.474.484c-.688,1.59-1.571,2.928-4.059,2.928C-290.477-18480.73-291.226-18484.1-291.226-18486.629Zm-45.633,0c0-2.283.749-5.883,4.77-5.883,1.725,0,2.929.8,3.715,2.967l-1.511.461c-.135-.461-.6-2.088-2.2-2.088-2.394,0-3.008,2.338-3.008,4.523,0,2.279.614,4.58,2.72,4.58a2.666,2.666,0,0,0,2.585-2.074l1.478.484c-.693,1.59-1.571,2.928-4.063,2.928C-336.11-18480.73-336.859-18484.1-336.859-18486.629Zm-11,0c0-2.91,1.3-5.883,4.77-5.883,4.022,0,4.77,3.6,4.77,5.883,0,2.928-1.3,5.9-4.77,5.9C-347.11-18480.73-347.854-18484.332-347.854-18486.629Zm1.762-.02c0,2.223.614,4.58,3.008,4.58s3.008-2.357,3.008-4.58c0-2.186-.614-4.523-3.008-4.523S-346.092-18488.834-346.092-18486.648Zm-7.09,2.99v-6.459h-1.706v-1.264h1.706v-2.8l1.688-.707v3.506h2.664v1.264h-2.664v6.244c0,.939.1,1.8,1.339,1.8a3.336,3.336,0,0,0,1.418-.33v1.344a4.964,4.964,0,0,1-1.59.324C-352.759-18480.73-353.182-18482.4-353.182-18483.658Zm82.492-.387c0-2.584,1.995-3.891,5.119-3.891h1.627v-.727c0-.766,0-2.584-2.2-2.584-1.4,0-2.05.781-2.548,2.008l-1.455-.441a3.853,3.853,0,0,1,4.1-2.832c3.352,0,3.794,2.279,3.794,4.273v5.955a8.4,8.4,0,0,0,.093,1.32h-1.781v-1.91h-.037a4.3,4.3,0,0,1-3.547,2.027A2.99,2.99,0,0,1-270.69-18484.045Zm1.688-.152a1.8,1.8,0,0,0,1.9,2.012c.688,0,1.609-.172,3.162-1.934v-2.547h-1.227C-267.584-18486.666-269-18485.9-269-18484.2Zm15.9,3.24v-7.742c0-1.152-.27-2.281-1.664-2.281a4.444,4.444,0,0,0-3.278,1.957v8.066h-1.688v-11.326h1.688v1.842c.921-.828,2.106-2.07,3.831-2.07,1.743,0,2.817,1.051,2.8,3.2v8.355Zm-21.284,0v-7.742c0-1.148-.265-2.277-1.664-2.277a4.44,4.44,0,0,0-3.278,1.953v8.066h-1.683v-14.887h1.683v5.4c.921-.824,2.106-2.07,3.831-2.07,1.743,0,2.817,1.057,2.8,3.2v8.355Zm-19.676,0-2.469-4.236a4.212,4.212,0,0,1-.325-.687h-.037a4.547,4.547,0,0,1-.367.688l-2.664,4.236h-1.916l3.775-6-3.315-5.328h1.976l1.99,3.352a10.911,10.911,0,0,1,.558,1.037h.037a10.911,10.911,0,0,1,.558-1.037l2.088-3.352h1.836l-3.408,5.291,3.7,6.035Zm-17.086,0v-13.641h8.2v1.418h-6.435v4.439h6.109v1.418h-6.109v4.947h6.63v1.418Zm-9.006,0-4.617-5.826h-.037v5.826H-326.5v-14.887h1.688v8.6l4.366-5.041h2.148l-4.7,5.23,5.021,6.1Zm-71.906-.08a.947.947,0,0,1-.484-.725,1.3,1.3,0,0,1,.656-1.3c.135-.08.335-.02.456-.131v.5c-.074-.121-.242-.09-.349-.066a.735.735,0,0,0-.372.656c-.009.287.014.6.288.738.214.047.358-.135.474-.283v.461a1.373,1.373,0,0,1-.516.18A.439.439,0,0,1-392.06-18481.037Zm-21.884-.566a7.5,7.5,0,0,0,.084-1.721.385.385,0,0,0-.414-.041l-.042.041.042-.455,1.26.58.028.531a.973.973,0,0,0-.5-.461,6.165,6.165,0,0,0,.065,1.762Zm23.209-1.654c-.186,0-.363.26-.479.408a3.354,3.354,0,0,1,0-.484c.409-.176.823-.352,1.241-.557.1.051.07.232.107.344v.094a.5.5,0,0,0-.479-.02l-.047.061a5.409,5.409,0,0,0,.112,1.637l-.539.256A7.631,7.631,0,0,0-390.734-18483.258Zm-24.869.826a1.4,1.4,0,0,1,.07-1.348.666.666,0,0,1,.744-.266.559.559,0,0,0,.274.088l.028.5c-.139-.141-.316-.359-.544-.262-.344.215-.26.666-.242,1.02a.629.629,0,0,0,.33.436.4.4,0,0,0,.428-.105l.028.482A1.153,1.153,0,0,1-415.6-18482.432Zm26.152.219-.13-.2-.042-1.391-.088-.154a1.723,1.723,0,0,1,.563-.2l-.107.262.019,1.354c.214.264.451,0,.5-.121,0-.01.023-1.387.023-1.387l-.107-.2a2.046,2.046,0,0,1,.544-.121l-.112.256c-.093.656.265,1.533-.386,1.916a1.38,1.38,0,0,1-.4.084A.38.38,0,0,1-389.451-18482.213Zm-27.235-.2.126-.242a5.656,5.656,0,0,0-.079-1.822l.563.111-.088.256.009,1.609.079.152a.617.617,0,0,1-.087.006A4.037,4.037,0,0,1-416.687-18482.412Zm28.867-.242a7,7,0,0,0-.042-1.711l-.065-.064a4.076,4.076,0,0,1,.7-.094,9.3,9.3,0,0,0,.237.977,5.551,5.551,0,0,0,.284-1.018h.632a10.016,10.016,0,0,0,0,2.045h-.456a5.752,5.752,0,0,0,.065-1.678,8.444,8.444,0,0,0-.4,1.348h-.33a6.611,6.611,0,0,0-.274-1.213l-.028,1.408c.028.051.046.1.07.154a3.8,3.8,0,0,1-.5.068Zm-21.773-9.549h5.681v-4.533l-6.184-.023a5.124,5.124,0,0,0,.609-2.654h1.046v-.066a22,22,0,0,1-1.413-2.543c-.037-.027-.06-.084-.023-.115a11.6,11.6,0,0,0,1.265-1.455l3.31-.02a11.719,11.719,0,0,1,2.287,1.279c1.13-.572,2.25-1.186,3.347-1.852a2.016,2.016,0,0,1,1.878-.018,2.762,2.762,0,0,1,.651.59l1.153.02a11.031,11.031,0,0,0,1.306,1.5c-.581.855-.832,1.846-1.5,2.664l1.065.037a4.79,4.79,0,0,0,.656,2.637l-6.225.023v4.533h5.7a11.875,11.875,0,0,1-7.332,9.73A11.929,11.929,0,0,1-409.592-18492.2Zm8.927,8.182a11.727,11.727,0,0,0,3.306-3.287,8.213,8.213,0,0,0,1.134-2.348h-4.44Zm-3.264-.023v-5.611h-4.463A11.169,11.169,0,0,0-403.929-18484.045Zm5.156-17.2s-.842,1.422-1.241,2.111a2.019,2.019,0,0,0,.377.674,1.8,1.8,0,0,0,1.85.5,1.72,1.72,0,0,0,1.13-1.176l-1.283-2.111,1.172,0v-.41H-407.83v.41l1.176,0-1.316,2.125a2.052,2.052,0,0,0,.577.836,1.88,1.88,0,0,0,1.655.326,1.807,1.807,0,0,0,1.153-1.176l-1.237-2.115,2.827,0v.762l.614.006-.744.971.828.893.828-.893-.762-.967.609-.01.019-.766Zm-19.657,16.877c0-.107-.088-.158-.135-.246h.27c.479-.01.972-.014,1.218.441a1.379,1.379,0,0,1-.093,1.283c-.256.377-.674.371-1.093.363-.107,0-.214,0-.316,0C-418.272-18483.021-418.449-18483.766-418.43-18484.365Zm.414,1.516a.431.431,0,0,0,.437-.148,1.32,1.32,0,0,0,.065-1.094.49.49,0,0,0-.484-.232Zm11.451-9.791a3.9,3.9,0,0,1,.065-.879,1.082,1.082,0,0,0-.7.088l-.019-.633a.966.966,0,0,0,.735.094,4.512,4.512,0,0,0-.367-1.5,3.4,3.4,0,0,0,.59-.916,3.192,3.192,0,0,0,.59.916,3.948,3.948,0,0,0-.377,1.5.931.931,0,0,0,.609-.023l.116-.07.019.633a1.344,1.344,0,0,0-.7-.107,6.941,6.941,0,0,1,.042.9Zm-13.195-3.641c-2.376-.387-5.044-1.492-5.942-4a4.335,4.335,0,0,1-.307-1.506,4.6,4.6,0,0,0,3.44,2.27,7.484,7.484,0,0,1-3.859-5.775,7.107,7.107,0,0,0,3.38,3.121l.023-.029a9.4,9.4,0,0,1-3.287-7.619,7.722,7.722,0,0,0,3.157,4.527l.019-.014c-1.809-2.361-3.092-5.338-2.092-8.457.088,3.264,2.273,6.045,5.031,7.8a7.937,7.937,0,0,1,.3.8,15.14,15.14,0,0,0,.939,1.869v.07l-1.2.977c.669.846,1.4,1.664,2.139,2.482a59.812,59.812,0,0,1,6.049-4.072c1-.484,2.343-.117,3.357-.562-.846.637-1.3,1.594-2.115,2.26a8.682,8.682,0,0,1,1.027,2.008,8.958,8.958,0,0,1-2.79-.176,11.418,11.418,0,0,1,.26,2.221,7.082,7.082,0,0,1-2.5-1.193,8.315,8.315,0,0,1-.8,3.17,8.413,8.413,0,0,1-1.618-1.822,12.037,12.037,0,0,1-1.776,2.367l-1.227,1.813A7.266,7.266,0,0,0-419.76-18496.281Zm32.684-1.023a1.951,1.951,0,0,1-.3-.609,9.969,9.969,0,0,1-1.637,1.832,8.7,8.7,0,0,1-.8-3.2,6.809,6.809,0,0,1-2.506,1.193,6.848,6.848,0,0,1,.265-2.18,11.339,11.339,0,0,1-2.813.135,8.018,8.018,0,0,1,1.023-2.008c-.8-.666-1.288-1.59-2.088-2.242.893.391,2.185.127,3.152.479a30.464,30.464,0,0,1,3.031,1.852l2.543,1.809.656.5.06-.02,2.139-2.441-1.218-1a16.619,16.619,0,0,0,1.2-2.678c2.748-1.775,5.012-4.555,5.091-7.838.995,3.109-.279,6.1-2.111,8.453l.019.018a7.671,7.671,0,0,0,3.185-4.547c.251,3.055-1.144,5.557-3.315,7.639h.07a7,7,0,0,0,3.352-3.092,6.718,6.718,0,0,1-1.957,4.244,9.732,9.732,0,0,1-1.92,1.5,4.917,4.917,0,0,0,1.767-.562,3.922,3.922,0,0,0,1.716-1.7,5.509,5.509,0,0,1-3.413,4.654,11.526,11.526,0,0,1-2.859.828,6.581,6.581,0,0,0,.377,2.506A28.023,28.023,0,0,0-387.076-18497.3Zm-11.284-3.789c.409.572.762,1.209,1.134,1.814l-2.2.018C-399.108-18499.889-398.727-18500.484-398.359-18501.094Zm-9.006,1.814,1.125-1.832,1.088,1.836Zm90.507-6.6c0-3.352,1.781-6.053,5.593-6.053s5.593,2.7,5.593,6.053c0,3.334-1.781,6.035-5.593,6.035S-316.857-18502.549-316.857-18505.883Zm3.678,0c0,1.744.307,3.469,1.915,3.469,1.725,0,1.915-1.725,1.915-3.469,0-1.762-.191-3.486-1.915-3.486C-312.873-18509.369-313.18-18507.645-313.18-18505.883Zm-16.263-.176c0-2.586.628-5.877,4.022-5.877a4.348,4.348,0,0,1,3.082,1.432v-4.5h3.6v14.887h-3.6v-1.227a4.135,4.135,0,0,1-3.18,1.5C-328.815-18499.848-329.443-18503.145-329.443-18506.059Zm3.673.307c0,1.055.116,3.223,1.725,3.223a2.4,2.4,0,0,0,1.706-.885v-4.9a2.214,2.214,0,0,0-1.664-.939C-325.691-18509.258-325.77-18507.184-325.77-18505.752Zm-29.058-.131c0-3.352,1.781-6.053,5.593-6.053s5.593,2.7,5.593,6.053c0,3.334-1.781,6.035-5.593,6.035S-354.828-18502.549-354.828-18505.883Zm3.678,0c0,1.744.307,3.469,1.915,3.469,1.725,0,1.915-1.725,1.915-3.469,0-1.762-.191-3.486-1.915-3.486C-350.844-18509.369-351.151-18507.645-351.151-18505.883Zm54.006,5.766v-7.109c0-.975-.232-1.762-1.111-1.762-.693,0-1.418.689-1.934,1.172v7.7h-3.6v-11.553h3.6v1.553c1.283-1.074,2.222-1.818,3.794-1.818,2.855,0,2.855,2.3,2.855,3.654v8.164Zm-37.971,0v-7.109c0-.975-.232-1.762-1.111-1.762-.693,0-1.418.689-1.934,1.172v7.7h-3.6v-11.553h3.6v1.553c1.283-1.074,2.222-1.818,3.794-1.818,2.855,0,2.855,2.3,2.855,3.654v8.164Zm-29.351,0v-13.641h3.757v10.768h5.077v2.873Zm-25.548-2.846-1.878-1.2.53-1.283c.325.111.632.293.953.438l-.237.408,1.525.959c.181-.229.372-.461.563-.7l.981.678v.061l-.5.656c.437.377.925.721,1.39,1.068a6.222,6.222,0,0,0,.739-.846,5.322,5.322,0,0,1,.693.516v.066l-1.367,1.543Zm-27.914,2.354-1.376-1.6a6.706,6.706,0,0,1,.725-.543l.711.85c.479-.32.935-.7,1.395-1.041-.126-.266-.386-.475-.5-.748l1-.67.544.7c.507-.32,1.027-.613,1.525-.957l-.237-.391a7.322,7.322,0,0,1,.958-.455l.516,1.277-2.673,1.744-2.548,1.832Zm30.611-2.4c.135-.25.344-.473.5-.715-.6-.475-1.26-.889-1.9-1.33l-.544.717h-.107c-.191-.117-.381-.246-.572-.367a6.048,6.048,0,0,1,.349-.5c-.349-.252-.8-.34-1.172-.572a3.228,3.228,0,0,1-1.372-1.129,2.615,2.615,0,0,0,2.311.414c.074-.145-.1-.293-.153-.437a2.2,2.2,0,0,0-2.046-1.154c-.172.023-.311.215-.391.35l-.028.107a1.074,1.074,0,0,1,.088-.828,1.281,1.281,0,0,1,1.218-.326,3.327,3.327,0,0,1,2.376,2.182,6.318,6.318,0,0,1,.177,1.041,3.945,3.945,0,0,0,.065-1.678c.27-.262.577-.512.823-.777a6.144,6.144,0,0,0-.823-.162,3.211,3.211,0,0,0-.2.422,2.622,2.622,0,0,0-1.5-1.2,8.373,8.373,0,0,1,3.371.172,3.269,3.269,0,0,0,.223-1.957,4.893,4.893,0,0,1,.851,1.68,4.539,4.539,0,0,0,.256-1.9c1.637,2.381.6,5.705-.893,7.816l-.367.479C-386.964-18502.684-387.141-18502.893-387.317-18503.01Zm-32.047-7.424.321-.545a5.032,5.032,0,0,0,.284,1.893,5.672,5.672,0,0,1,.832-1.7,3.679,3.679,0,0,0,.242,1.986,8.208,8.208,0,0,1,3.371-.178,2.338,2.338,0,0,0-1.478,1.2c-.112-.1-.126-.283-.242-.414a8.03,8.03,0,0,0-.828.154l.846.8a3.532,3.532,0,0,0,.046,1.637,3.448,3.448,0,0,1,1.8-2.939,1.9,1.9,0,0,1,1.767-.111.954.954,0,0,1,.26,1.023c.009-.191-.177-.344-.325-.434-.837-.26-1.511.354-2.022.977a2.237,2.237,0,0,0-.284.525,1.932,1.932,0,0,0,1.3.107,2.617,2.617,0,0,0,1.027-.479,5.457,5.457,0,0,1-2.529,1.678l.349.5a2.26,2.26,0,0,1-.651.414l-.563-.74c-.623.455-1.26.842-1.878,1.311l.5.717a2.045,2.045,0,0,1-.544.391C-419.383-18504.795-420.569-18507.746-419.365-18510.434Zm16.17,7.318a17.513,17.513,0,0,0-2.064-1.135.953.953,0,0,1-.349-.939,1.246,1.246,0,0,1,.716-.738v-.127l-.456-.832c-.363-.051-.7-.148-1.065-.213a5.559,5.559,0,0,1-4.161.26,1.717,1.717,0,0,0,1.088-.852,1.555,1.555,0,0,0-.149-1.543c-.665-.748-1.516-1.186-2.157-2a1.422,1.422,0,0,0-1.409-.391.851.851,0,0,0-.572.893,2.482,2.482,0,0,1-1.59-2.092,1.732,1.732,0,0,1,.828-1.441,1.982,1.982,0,0,1,1.985.047,2.283,2.283,0,0,0-.9-1.609,2.589,2.589,0,0,0-2.478-.371,6.159,6.159,0,0,1-1.9,2.287,2.686,2.686,0,0,1-2.655.131,3.944,3.944,0,0,1-1.832-3.832,5.418,5.418,0,0,0,1.627,1.033c.279.082.823.18,1.074-.047a3.172,3.172,0,0,1-.209-1.1,3.366,3.366,0,0,1,1.344-2.65,2.585,2.585,0,0,0,1.716,2.129,2.783,2.783,0,0,0,1.176.182,2.909,2.909,0,0,1,2.724-.92,2.742,2.742,0,0,1,1.934,1.7,5.8,5.8,0,0,1,.284,2.512,1.656,1.656,0,0,1,1.59-.5,1.758,1.758,0,0,1,1.2,1.5,5.61,5.61,0,0,1-.046,1.674,1.372,1.372,0,0,0-1.172-.629,1.03,1.03,0,0,0-.809.434,1.063,1.063,0,0,0,.088.98,2.867,2.867,0,0,0,2.9.785c.26-.041.47-.2.721-.26a.917.917,0,0,0,.037,1c.958.957,2.585.855,3.817.566a11.029,11.029,0,0,0,2.757-1.111c-.642.9.163,1.795.377,2.637a6.294,6.294,0,0,0,.8-1.465,2.371,2.371,0,0,0,1.59,2.008,2.76,2.76,0,0,0,1.348.043,1.964,1.964,0,0,1-.367-1.633c.051-.7.883-1.105.916-1.785a3.209,3.209,0,0,1-2.729.3,2.61,2.61,0,0,1-1.26-1.307,7.971,7.971,0,0,1-5.593,1.721c.186-.475.507-.893.7-1.367l-.786-.027-.651,1.223a.935.935,0,0,1-.572-.586,1.059,1.059,0,0,1,.311-.916,1.933,1.933,0,0,0-.437-.088,1.078,1.078,0,0,1-.8-.8c-.033-.512.209-.939.7-.939.014-.215-.079-.619.019-.8.056-.3.377-.408.632-.479.037.014.065-.02.088-.047v-.715l-1.055-.252-1.125-2.883a14.177,14.177,0,0,0,1.172-.893c-.237-.219.084-.414.135-.613l.414-.633a6.231,6.231,0,0,0-.153-1.26c.451.182.851.539,1.348.521l.656-.08v-.549l-.539-.5v-2.937h.823v.781h.874v-.781h.846v.789l.869,0v-.785h.851v2.938l-.544.5v2.064h1.567c.149-.158.321-.34.567-.3h1.59a1.886,1.886,0,0,1-.679,1.354,2.867,2.867,0,0,1-.5.215,1.089,1.089,0,0,1,.372,1.176,1.23,1.23,0,0,1-.33.482,1.763,1.763,0,0,1,0,1.848c.79.486-.019,1.186.042,1.807a1.1,1.1,0,0,1,.637.787.926.926,0,0,1-.349.91.863.863,0,0,1-.418.131c.028.27.335.521.572.7a2.277,2.277,0,0,0,2.171.023,1.725,1.725,0,0,0,.832-.893.837.837,0,0,0-.112-.627,1.108,1.108,0,0,0-1.195-.33,1.408,1.408,0,0,0-.744.563c-.214-1.051-.191-2.395.8-3.023a1.716,1.716,0,0,1,1.548.047,1.509,1.509,0,0,1,.372.3c-.093-1.521.135-3.074,1.5-3.9a2.906,2.906,0,0,1,2.962.176l.567.479a2.886,2.886,0,0,0,2.585-1.418,2.528,2.528,0,0,0,.284-.893,3.322,3.322,0,0,1,1.2,3.57c-.074.113-.051.229.088.266,1.009.219,1.8-.461,2.548-1.092a3.871,3.871,0,0,1-1.985,3.918,2.719,2.719,0,0,1-2.743-.367,5.711,5.711,0,0,1-1.562-2.027c-.344-.4-.907-.283-1.423-.236a2.7,2.7,0,0,0-1.911,1.391,2.393,2.393,0,0,0-.2.7,1.983,1.983,0,0,0,.391-.168,2,2,0,0,1,1.985.41,1.681,1.681,0,0,1,.367,1.762,2.636,2.636,0,0,1-1.46,1.5c-.084-.68-.465-.9-.8-.93-.935-.205-1.348.7-2.009,1.23-.637.615-1.809,1.107-1.669,2.182a1.488,1.488,0,0,0,.693,1.176,2.362,2.362,0,0,0,.544.219c-1.213.428-2.98.566-4.008-.367-.242.391.107,1.064.2,1.25a4.719,4.719,0,0,1,.721,1.66,2.264,2.264,0,0,0-2.092-.6,11.308,11.308,0,0,0-2.7,1.371c-.549.32-1.032.566-1.032.566S-403.106-18503.074-403.195-18503.115Zm-1.781-4.287a16.606,16.606,0,0,1,1.525,3.365,6.817,6.817,0,0,0-.219-2.588,6.829,6.829,0,0,1-.237-.824,6.375,6.375,0,0,0,2.153-.637,4.275,4.275,0,0,0,1.46-1.105,9.539,9.539,0,0,1-4.268,1.24c-.944-.037-1.962-.07-2.483-.934-.214-.424.107-.875.223-1.158a4.3,4.3,0,0,1-2.878-.344,2.662,2.662,0,0,1,.786,2.891c-.088.135-.177.262-.265.4a3.9,3.9,0,0,0,2.59-.633A4.4,4.4,0,0,0-404.975-18507.4Zm-1.069-5.445c-.158.084-.158.262-.149.434a.647.647,0,0,0,.437.418,1.286,1.286,0,0,0,1.088-.182,5,5,0,0,0-.939-.711.516.516,0,0,0-.165-.025A.579.579,0,0,0-406.045-18512.848Zm6.755-.156c.3.324.428.785.846.98a.507.507,0,0,0,.479-.088.622.622,0,0,0,.07-.475,1.064,1.064,0,0,0-.954-.484A1.456,1.456,0,0,0-399.289-18513Zm-1.465-.215c.316.34.5.758.851,1.07a.739.739,0,0,0,.721.018c-.279-.334-.484-.711-.758-1.047a.887.887,0,0,0-.468-.133A.64.64,0,0,0-400.754-18513.219Zm-4.263.178c.344.236.623.641.976.863a.708.708,0,0,0,.739-.088,6.363,6.363,0,0,0-1.018-.93,1.138,1.138,0,0,0-.231-.025A.592.592,0,0,0-405.017-18513.041Zm2.831-.242c.432.334.558.947,1.111,1.092a.577.577,0,0,0,.5-.115c-.358-.312-.493-.754-.874-1.023a.922.922,0,0,0-.347-.068A.643.643,0,0,0-402.186-18513.283Zm-1.465.088.8.781a.912.912,0,0,0,.921.088c-.372-.33-.628-.8-1.046-1.023a.627.627,0,0,0-.178-.025A.906.906,0,0,0-403.65-18513.2Zm-1.172-1.176c-.051.264-.349.111-.5.213-.321.148-.139.592-.153.828a1.392,1.392,0,0,1,1.395-.236l.563-1.613a4.029,4.029,0,0,0,3.157-1,5.56,5.56,0,0,0,1.176,1.52l-.046.27c0,.168-.1.148-.209.131a.235.235,0,0,0-.2.018c-.246.084-.2.367-.265.563l.418.289a2.414,2.414,0,0,1,.93-.117c.074-.389.191-.766.284-1.152l-.437-.562a1.214,1.214,0,0,0,.312-.455,1.465,1.465,0,0,0-.33-1.35.9.9,0,0,0,.484-.873c-.1-.68-.683-.643-1.269-.609a3.934,3.934,0,0,1-.642.006.239.239,0,1,1-.014-.475c.232-.023.479-.02.721-.02a3.8,3.8,0,0,0,1.418-.168.867.867,0,0,0,.437-.631h-1.027a.72.72,0,0,1-.349.283,4.777,4.777,0,0,1-.693.018,2.66,2.66,0,0,0-1.046.117.855.855,0,0,0-.4.479.753.753,0,0,0,.088.586c.3.395.8.381,1.3.363a4.273,4.273,0,0,1,.549,0,.238.238,0,0,1,.135.2.272.272,0,0,1-.153.182h-2.636c-.172.371-.511.674-.5,1.125h-.762l-.786.893-.758-.893-.767-.018-.023-.309-.693-1.26a5.042,5.042,0,0,0,.321-.785l-.214-.2-.851.65.893,2.348.7.182v-.2l.5,0Zm3.334.148a.338.338,0,0,0-.242.367c.237.061.535.051.716.266a1.1,1.1,0,0,1,.656-.15,3.106,3.106,0,0,1,.177-.721c.06-.148.219-.172.349-.213a5.59,5.59,0,0,1-.7-.809l-.7.414c.009.176.246.27.3.422a.842.842,0,0,1-.028.363c-.06.057-.177.047-.293.041-.033,0-.067,0-.1,0A.319.319,0,0,0-401.488-18514.223Zm12.911-3.264c.73.916.869,2.078,1.892,2.873a2.139,2.139,0,0,0,2.022.455,2.854,2.854,0,0,0,1.743-2.2,2.849,2.849,0,0,1-.981.457,2.12,2.12,0,0,1-1.809-.387,1.168,1.168,0,0,1,.153-.266,2.61,2.61,0,0,0-.3-2.7A2.948,2.948,0,0,1-388.577-18517.486Zm-31.62,3.156a1.977,1.977,0,0,0,1.985-.061c1.265-.715,1.451-2.111,2.241-3.139a2.957,2.957,0,0,1-2.724-1.766l-.107.129a2.712,2.712,0,0,0-.019,2.855,3.415,3.415,0,0,1-.456.283,2.419,2.419,0,0,1-2.334-.395A3.006,3.006,0,0,0-420.2-18514.33Zm14.957-6.137a2.517,2.517,0,0,0-.474.865l.5.654a1.667,1.667,0,0,1-.33.848l.632,1.133h.484l.581.717.544-.7.525-.037.628-1.115a2.137,2.137,0,0,1-.349-.8l.544-.721a3.156,3.156,0,0,0-.5-.832,3.982,3.982,0,0,0,.042-.65l-.563.307a2.686,2.686,0,0,0-1.767,0l-.563-.307Zm2.357-1.223h1.172a4.339,4.339,0,0,0-.042-.957,1.08,1.08,0,0,0-.59-.656C-402.939-18522.959-402.9-18522.312-402.883-18521.689Zm19.374,8.229a14.752,14.752,0,0,1,1.288,4.967,5.859,5.859,0,0,1-1.878,1.762A16.576,16.576,0,0,0-383.51-18513.461Zm-38.8,4.924a14.593,14.593,0,0,1,1.288-4.971,16.4,16.4,0,0,0,.59,6.729A5.6,5.6,0,0,1-422.308-18508.537Zm17.723-9.145-.019-.721c.153.1.484.172.572,0l-.958-1.609h.753l.019.824h.809l.028-.824h.786l-.986,1.609c.084.152.33.074.474.064l.112-.064.023.7a2.54,2.54,0,0,1-.815.127A3.041,3.041,0,0,1-404.585-18517.682Z" transform="translate(166 18526.398)" fill="#fff"/></g></svg>