<svg xmlns="http://www.w3.org/2000/svg" width="115" height="59" viewBox="0 0 115 59"><g transform="translate(-923 -2143)"><rect width="115" height="59" transform="translate(923 2143)" fill="none"/><path d="M49.822,5.324c5.813,0,10.528,24.523,10.528,54.809h8.482c0-32.606-8.557-59-19.035-59-5.987,0-11.276,7.908-14.769,20.332C31.536,9.041,26.247,1.133,20.31,1.133,9.832,1.133,1.3,27.5,1.3,60.108H9.782c0-30.286,4.665-54.784,10.478-54.784S30.788,27.976,30.788,55.917H39.22c0-27.941,4.74-50.593,10.553-50.593" transform="translate(945.7 2141.867)" fill="#fc0"/></g></svg>