<svg xmlns="http://www.w3.org/2000/svg" width="115" height="59" viewBox="0 0 115 59"><g transform="translate(-506 -2143)"><rect width="115" height="59" transform="translate(506 2143)" fill="none"/><g transform="translate(-2633 -860)"><path d="M-1383.054,556.366a4.547,4.547,0,0,1-1.859-1.878,5.632,5.632,0,0,1-.664-2.713,6.455,6.455,0,0,1,.683-3.035,4.956,4.956,0,0,1,1.973-2.03,5.952,5.952,0,0,1,3-.74,6.885,6.885,0,0,1,1.385.152,5.736,5.736,0,0,1,1.176.38l.019.019v2.409l-.095-.076a4.038,4.038,0,0,0-2.352-.8,3.045,3.045,0,0,0-2.314.948,3.586,3.586,0,0,0-.873,2.561,3.5,3.5,0,0,0,.854,2.485,2.91,2.91,0,0,0,2.314.911,3.655,3.655,0,0,0,1.176-.228,4.243,4.243,0,0,0,1.2-.626l.095-.076v2.277l-.019.019a5.964,5.964,0,0,1-2.978.7A5.471,5.471,0,0,1-1383.054,556.366Zm35.19-.8a5.407,5.407,0,0,1-1.442-3.927,5.651,5.651,0,0,1,1.461-4.136,5.438,5.438,0,0,1,4.079-1.518,4.993,4.993,0,0,1,3.832,1.442,5.489,5.489,0,0,1,1.385,3.965,5.632,5.632,0,0,1-1.461,4.079,5.26,5.26,0,0,1-4,1.537A5.225,5.225,0,0,1-1347.864,555.569Zm1.878-6.64a3.983,3.983,0,0,0-.759,2.58,3.747,3.747,0,0,0,.759,2.523,2.59,2.59,0,0,0,2.125.911,2.486,2.486,0,0,0,2.068-.873,4.389,4.389,0,0,0,.721-2.618,3.891,3.891,0,0,0-.759-2.561,2.523,2.523,0,0,0-2.049-.873A2.608,2.608,0,0,0-1345.986,548.93Zm-21.8,6.64a5.408,5.408,0,0,1-1.442-3.927,5.651,5.651,0,0,1,1.461-4.136,5.439,5.439,0,0,1,4.079-1.518,4.993,4.993,0,0,1,3.832,1.442,5.49,5.49,0,0,1,1.385,3.965,5.631,5.631,0,0,1-1.461,4.079,5.26,5.26,0,0,1-4,1.537A5.225,5.225,0,0,1-1367.783,555.569Zm1.878-6.64a3.983,3.983,0,0,0-.759,2.58,3.747,3.747,0,0,0,.759,2.523,2.59,2.59,0,0,0,2.125.911,2.486,2.486,0,0,0,2.068-.873,4.389,4.389,0,0,0,.721-2.618,3.891,3.891,0,0,0-.759-2.561,2.522,2.522,0,0,0-2.049-.873A2.608,2.608,0,0,0-1365.905,548.93Zm35.7,4.724v-5.406h-3.718v8.48h-2.485v-8.5h-1.726v-2.011h1.726v-1.461a3.884,3.884,0,0,1,.493-1.954,3.291,3.291,0,0,1,1.347-1.347,4.442,4.442,0,0,1,1.973-.455,4.409,4.409,0,0,1,1.385.19l.057.019v2.144l-.095-.057a2.767,2.767,0,0,0-1.1-.247,1.473,1.473,0,0,0-1.157.455,2.08,2.08,0,0,0-.417,1.385v1.328h3.718v-2.371l.057-.019,2.352-.7.076-.019v3.111h2.485v2.03h-2.523v4.97a2.054,2.054,0,0,0,.342,1.347,1.314,1.314,0,0,0,1.081.4,1.734,1.734,0,0,0,.493-.076,1.6,1.6,0,0,0,.512-.228l.095-.076v2.03l-.019.019a3.416,3.416,0,0,1-.778.247,6.512,6.512,0,0,1-1.043.114C-1329.159,556.992-1330.2,555.873-1330.2,553.653Zm-25.572,3.168a7.35,7.35,0,0,1-1.328-.417l-.057-.019v-2.409l.095.076a5.282,5.282,0,0,0,1.385.7,4.256,4.256,0,0,0,1.366.247c1.081,0,1.613-.341,1.613-1.043a1.078,1.078,0,0,0-.152-.588,2.577,2.577,0,0,0-.569-.455c-.266-.152-.7-.342-1.271-.588a6.607,6.607,0,0,1-1.518-.854,2.876,2.876,0,0,1-.759-.987,3.011,3.011,0,0,1-.247-1.29,2.805,2.805,0,0,1,1.119-2.314,4.4,4.4,0,0,1,2.9-.91,7.6,7.6,0,0,1,1.214.114,6.838,6.838,0,0,1,1.119.322l.057.019v2.314l-.095-.076a3.27,3.27,0,0,0-1.1-.512,4.9,4.9,0,0,0-1.271-.19,1.828,1.828,0,0,0-1.081.285.881.881,0,0,0-.4.759,1.077,1.077,0,0,0,.285.8,5.907,5.907,0,0,0,1.5.778,7.692,7.692,0,0,1,2.22,1.309,2.66,2.66,0,0,1,.607,1.8,2.9,2.9,0,0,1-1.157,2.39,4.619,4.619,0,0,1-3.054.911A8.475,8.475,0,0,1-1355.775,556.821Zm-52.226-.038V542.119h3.585l3.661,9.2a13.734,13.734,0,0,1,.664,1.9h.057l.683-1.935,3.756-9.2h3.453v14.645h-2.523v-9.3c.019-.588.057-1.556.114-2.637h-.057a11.411,11.411,0,0,1-.285,1.157l-4.363,10.794h-1.669l-4.4-10.7a8.871,8.871,0,0,1-.342-1.252h-.057c.019.228.057.531.076.93.019.8.019,1.442.019,2.011v9.049Zm32.5-.057v-10.51h2.466v1.84h.019a3.541,3.541,0,0,1,.948-1.423,2.6,2.6,0,0,1,1.67-.588,1.874,1.874,0,0,1,.929.171l.057.019V548.7l-.095-.076a1.947,1.947,0,0,0-.588-.247,6.085,6.085,0,0,0-.74-.095,1.9,1.9,0,0,0-1.594.854,3.621,3.621,0,0,0-.607,2.22v5.369Zm-14.247,0v-10.51h2.466v10.51Zm.209-12.5a1.334,1.334,0,0,1-.436-1.005,1.346,1.346,0,0,1,.436-1.025,1.478,1.478,0,0,1,1.043-.417,1.384,1.384,0,0,1,1.043.417,1.407,1.407,0,0,1,.436,1.025,1.334,1.334,0,0,1-.436,1.005,1.512,1.512,0,0,1-1.043.4A1.462,1.462,0,0,1-1389.542,544.225Z" transform="translate(4579.232 2483.058)" fill="#737373"/><rect width="11.576" height="11.576" transform="translate(3151.938 3020)" fill="#7fba00"/><rect width="11.576" height="11.576" transform="translate(3151.938 3032.938)" fill="#ffb900"/><rect width="11.576" height="11.576" transform="translate(3139 3020)" fill="#f25022"/><rect width="11.576" height="11.576" transform="translate(3139 3032.938)" fill="#00a4ef"/></g></g></svg>