<svg xmlns="http://www.w3.org/2000/svg" width="115" height="59" viewBox="0 0 115 59"><g transform="translate(-1062 -2143)"><rect width="115" height="59" transform="translate(1062 2143)" fill="none"/><path d="M49.642,9.73h7.6L53.227,3.261,45.858,14.955l-3.359,0L51.47.914A2.137,2.137,0,0,1,54.958.889l9,14.068-3.36,0-1.576-2.614h-7.7L49.642,9.73Zm34.864,2.614V.146h-2.85v13.39a1.4,1.4,0,0,0,.415.989,1.47,1.47,0,0,0,1.043.43H96.1l1.675-2.611H84.506ZM37.393,10.16a5.007,5.007,0,0,0,0-10.014H24.931V14.954h2.846V2.756H37.2a2.4,2.4,0,0,1,0,4.795l-8.025,0,8.5,7.406h4.137l-5.718-4.8,1.3,0ZM7.4,14.954A7.4,7.4,0,1,1,7.4.146h8.607a7.405,7.405,0,0,1,0,14.811Zm8.416-2.609a4.794,4.794,0,0,0,0-9.588H7.6a4.795,4.795,0,0,0,0,9.589h8.225ZM69.9,14.954A7.4,7.4,0,1,1,69.9.146H80.129L78.452,2.757h-8.36a4.795,4.795,0,1,0,0,9.589H80.359l-1.673,2.609H69.9Zm34.835-2.609a4.792,4.792,0,0,1-4.611-3.484H112.3l1.677-2.611H100.12a4.794,4.794,0,0,1,4.614-3.493h8.355L114.768.146H104.539a7.4,7.4,0,1,0,0,14.808h8.787L115,12.345Z" transform="translate(1062 2165.094)" fill="red"/></g></svg>