<svg xmlns="http://www.w3.org/2000/svg" width="115" height="59" viewBox="0 0 115 59"><g transform="translate(-228 -2143)"><rect width="115" height="59" transform="translate(228 2143)" fill="none"/><g transform="translate(227.989 2153.114)"><g transform="translate(0.011 0.016)"><g transform="translate(0 0)"><path d="M114.94,9.107c1.566,8.978-22.874,20.735-54.6,26.259S1.646,38.088.082,29.105,22.965,8.373,54.682,2.851,113.378.127,114.94,9.107Z" transform="translate(-0.011 -0.016)" fill="#034ea2"/></g><g transform="translate(16.202 12.707)"><path d="M3282.814,559.735l-.162-9.334h2.943v11.766h-4.231l-2.938-9.656h-.064l.164,9.656H3275.6V550.4h4.417l2.733,9.334Z" transform="translate(-3213.94 -550.025)" fill="#fff"/><path d="M1129.34,551.5l-1.628,10.787H1124.5l2.2-11.89h5.289l2.2,11.89h-3.2l-1.583-10.787Z" transform="translate(-1113.972 -550.025)" fill="#fff"/><path d="M1638.446,559.49l1.469-9.09h4.849l.257,11.89h-2.971l-.079-10.69h-.062l-1.987,10.69h-3.016l-1.99-10.69h-.064l-.074,10.69H1631.8l.264-11.89h4.852l1.467,9.09Z" transform="translate(-1609.213 -550.025)" fill="#fff"/><path d="M687.122,543.511a1.561,1.561,0,0,1,.026.882,1.032,1.032,0,0,1-1.158.8,1.064,1.064,0,0,1-1.2-1.079v-1.151H681.6l0,.92c0,2.65,2.087,3.451,4.324,3.451,2.151,0,3.922-.735,4.2-2.717a5.929,5.929,0,0,0-.012-1.954c-.5-2.489-5.016-3.233-5.351-4.623a1.56,1.56,0,0,1-.012-.628.981.981,0,0,1,1.086-.8,1.016,1.016,0,0,1,1.105,1.079v.735h2.964V537.6c0-2.591-2.325-3-4.008-3-2.116,0-3.844.7-4.16,2.634a4.172,4.172,0,0,0,.026,1.607C682.287,541.268,686.509,541.971,687.122,543.511Z" transform="translate(-681.6 -534.6)" fill="#fff"/><path d="M2315.769,546.126a1.541,1.541,0,0,1,.026.87,1.018,1.018,0,0,1-1.148.792,1.055,1.055,0,0,1-1.184-1.065l0-1.141H2310.3l0,.908c0,2.624,2.068,3.416,4.281,3.416,2.127,0,3.882-.725,4.16-2.688a5.685,5.685,0,0,0-.01-1.932c-.5-2.465-4.965-3.2-5.3-4.581a1.5,1.5,0,0,1-.012-.616.969.969,0,0,1,1.077-.789,1,1,0,0,1,1.091,1.065v.727h2.943v-.827c0-2.562-2.306-2.964-3.974-2.964-2.092,0-3.805.689-4.115,2.612a4.081,4.081,0,0,0,.029,1.588C2310.982,543.9,2315.163,544.6,2315.769,546.126Z" transform="translate(-2271.585 -537.236)" fill="#fff"/><path d="M2788.753,560.317a1.069,1.069,0,0,0,1.139-.863,2.513,2.513,0,0,0,.028-.454v-8.8h3.007v8.529c.007.219-.014.668-.026.78-.211,2.22-1.966,2.94-4.15,2.94s-3.943-.72-4.153-2.94c-.009-.112-.031-.563-.026-.78V550.2h3V559a2.712,2.712,0,0,0,.029.454A1.084,1.084,0,0,0,2788.753,560.317Z" transform="translate(-2734.583 -549.829)" fill="#fff"/><path d="M3831.012,547.109a1.115,1.115,0,0,0,1.217-.86,2.792,2.792,0,0,0,.026-.452v-1.726h-1.219v-1.735h4.217v3.192c0,.224-.007.387-.043.784-.2,2.163-2.075,2.936-4.181,2.936s-3.984-.773-4.186-2.936c-.033-.4-.038-.561-.043-.784l0-5.006c0-.212.026-.585.05-.784.264-2.223,2.066-2.938,4.177-2.938s3.955.711,4.174,2.938a7.007,7.007,0,0,1,.026.784v.4h-3v-.666a2.977,2.977,0,0,0-.038-.452,1.079,1.079,0,0,0-1.186-.868,1.094,1.094,0,0,0-1.184.868,2.737,2.737,0,0,0-.05.561V545.8a2.508,2.508,0,0,0,.031.452A1.1,1.1,0,0,0,3831.012,547.109Z" transform="translate(-3752.038 -536.748)" fill="#fff"/></g></g></g></g></svg>