<svg xmlns="http://www.w3.org/2000/svg" width="115" height="59.257" viewBox="0 0 115 59.257"><g transform="translate(-1062 -2142.743)"><rect width="115" height="59" transform="translate(1062 2143)" fill="none"/><g transform="translate(1484.028 2264.082)"><path d="M-6419.945-2577.546a2.266,2.266,0,0,1-1.818-1.1,8.062,8.062,0,0,1-.12-4.244,2.047,2.047,0,0,1,1.444-1.381,10.574,10.574,0,0,1,3.509-.284h0a19.122,19.122,0,0,1,4.378.3,2.12,2.12,0,0,1,1.428,1.294,8.51,8.51,0,0,1,.074,2.458c-.074.09-.347.094-3.546.063-3.129-.031-3.474-.024-3.558.06a1.543,1.543,0,0,0,.067,1.153c.284.381.343.4,1.477.417.885.016,1.068,0,1.247-.082a1.182,1.182,0,0,0,.578-.7l.062-.219,1.747-.015c2.013-.018,1.973-.028,1.9.442a2.127,2.127,0,0,1-1.785,1.834c-.246.058-1.86.087-3.494.087C-6417.961-2577.461-6419.589-2577.489-6419.945-2577.546Zm2.51-5.464a.864.864,0,0,0-.625.755.594.594,0,0,0,.069.317,6.476,6.476,0,0,0,1.563.069c1.279,0,1.505-.013,1.584-.091.24-.241-.065-.769-.605-1.044a2.864,2.864,0,0,0-.959-.116h-.026A3.453,3.453,0,0,0-6417.436-2583.01Zm-16.777,5.418c-.016-.04-.021-2.212-.013-4.828l.015-4.755,1.762-.016a9.562,9.562,0,0,1,1.841.051c.063.053.08.362.08,1.536v1.471l.14.035a1.545,1.545,0,0,0,.594-.121,11.134,11.134,0,0,1,4.381-.035,2.172,2.172,0,0,1,1.659,1.21,50.229,50.229,0,0,1,0,5.453,7.643,7.643,0,0,1-1.728.07,7.65,7.65,0,0,1-1.728-.07,12.364,12.364,0,0,1-.07-2.257v-2.188l-.172-.172a2.758,2.758,0,0,0-2.944.061l-.131.123v2.182a12.309,12.309,0,0,1-.07,2.252,11.163,11.163,0,0,1-1.794.075A10.748,10.748,0,0,1-6434.213-2577.592Zm30.676,0h0c-.015-.04-.021-2.212-.013-4.828l.015-4.755,1.762-.016a9.57,9.57,0,0,1,1.841.051c.11.091.12,9.441.01,9.551a11.171,11.171,0,0,1-1.794.075A10.717,10.717,0,0,1-6403.537-2577.592Zm-42.069.007a5.546,5.546,0,0,1-1.826-.286,2.1,2.1,0,0,1-1.122-1.113,4.035,4.035,0,0,1-.231-1.385l.018-.252h4.292l.034.348a1.024,1.024,0,0,0,.742,1.019,9.277,9.277,0,0,0,1.49.044c1.277-.019,1.28-.02,1.515-.175a1.159,1.159,0,0,0,.481-1.077,1.094,1.094,0,0,0-.277-.9c-.276-.289-.528-.32-3.231-.389a29,29,0,0,1-2.928-.149,2.767,2.767,0,0,1-1.491-.768c-.323-.425-.382-.748-.349-1.917.031-1.119.07-1.314.348-1.724a2.581,2.581,0,0,1,1.937-.945c.258-.034,2.059-.066,4.165-.076a22.9,22.9,0,0,1,4.166.09,2.34,2.34,0,0,1,1.517.84,3.2,3.2,0,0,1,.171,1.949c-.08.079-.344.091-2.022.091a8.782,8.782,0,0,1-1.99-.073,1.348,1.348,0,0,1-.082-.452c-.038-.629-.3-.873-1.08-1a9.893,9.893,0,0,0-2.5.1c-.624.188-.723.345-.692,1.093.022.54.1.709.446.943.218.148.4.162,3.431.246a13.853,13.853,0,0,1,2.58.176,2.512,2.512,0,0,1,1.971,1.391,7.568,7.568,0,0,1,.169,2.005c-.121,1.4-.75,2.108-1.981,2.234-1.03.105-3.094.167-4.957.167C-6443.932-2577.525-6444.906-2577.544-6445.606-2577.585Zm36.362-.045c-.095-.177-.083-9.346.012-9.476.066-.09.23-.1,1.841-.083l1.769.016v9.626l-1.78.015c-.432,0-.76.006-1.009.006C-6409.15-2577.526-6409.2-2577.549-6409.244-2577.63Z" transform="translate(6059.467 2515.379)" fill="#ec1b23"/><path d="M-365.382-75.189a3.745,3.745,0,0,1-1.836-.911l-.361-.305h-6.353c-5.03,0-6.359-.015-6.38-.072-.014-.04-.091-.673-.171-1.406s-.17-1.543-.2-1.8-.1-.842-.149-1.3-.13-1.167-.175-1.566-.136-1.221-.2-1.827-.133-1.173-.15-1.261c-.026-.132-.679-.62-3.9-2.914-2.127-1.515-3.938-2.814-4.026-2.886-.151-.123-.166-.18-.274-1.058a25.536,25.536,0,0,1,5.063-19.166,21.572,21.572,0,0,1,2.946-3.348,24.045,24.045,0,0,1,9.735-5.387,25.028,25.028,0,0,1,9.945-.742,24.96,24.96,0,0,1,12.932,5.7,25,25,0,0,1,3.075,3.146A27.03,27.03,0,0,1-340.387-92.7c-.032.335-.074.687-.092.783-.029.149-.327.392-2.062,1.682-1.116.829-2.907,2.163-3.98,2.964l-1.951,1.456-.068.6c-.065.573-.111,1-.454,4.169-.336,3.107-.492,4.483-.512,4.5s-2.845.038-6.3.059l-6.277.039-.377.309a3.745,3.745,0,0,1-2.924.946Z" transform="translate(0 0)" fill="#ec1b23"/><path d="M-296.66-7.9a3.654,3.654,0,0,0,.862-.645l.471-.452,4.708-.041c4.231-.037,4.71-.051,4.734-.133a4.8,4.8,0,0,0,.062-.5c.02-.223.073-.758.118-1.189s.124-1.187.174-1.682.127-1.238.171-1.653.112-1.081.151-1.481l.071-.727,3.79-2.781,3.877-2.846a6.515,6.515,0,0,0,.357-2.284,9.424,9.424,0,0,0-.246-2.766A5.571,5.571,0,0,0-278-28.747c-.036,0-2.28,2.241-4.987,4.981l-6.277,6.35c-1.038,1.049-1.361,1.344-1.382,1.263-.037-.142.085-.314,1.341-1.9.6-.75,1.7-2.143,2.457-3.1s1.781-2.245,2.278-2.87c4.305-5.416,6.106-7.7,6.127-7.786a6.537,6.537,0,0,0-.431-1.526,10.469,10.469,0,0,0-1.153-1.945,11.27,11.27,0,0,0-1.547-1.68c-.014.016-.425.734-.913,1.595l-1.612,2.842-1.2,2.117-1.547,2.726-2.338,4.117-2.3,4.059c-.57,1-1.072,1.862-1.114,1.905a.2.2,0,0,1-.2.04c-.243-.077-.153-.343.839-2.467.529-1.132,1.022-2.189,1.1-2.349s.59-1.269,1.148-2.465,1.373-2.944,1.81-3.885,1.681-3.608,2.762-5.927,1.966-4.264,1.966-4.321a3.524,3.524,0,0,0-.877-1.22,11.469,11.469,0,0,0-2.113-1.612,15.71,15.71,0,0,0-1.973-1c-.024.024-.136.411-.982,3.407-.988,3.5-1.169,4.14-1.623,5.741-.267.941-.658,2.324-.87,3.073l-.754,2.668c-1.331,4.7-2.085,7.376-2.324,8.235-.253.909-.286.986-.423.986-.177,0-.189-.145-.066-.773.063-.324.157-.811.208-1.082s.129-.676.172-.9.145-.758.226-1.189.279-1.487.441-2.349.331-1.761.376-2c.209-1.122.286-1.531.753-4,.274-1.451.523-2.769.552-2.928.078-.424.174-.931.725-3.856.273-1.451.536-2.847.584-3.1l.163-.87c.042-.223.151-.8.241-1.291l.165-.885-.136-.1a6.826,6.826,0,0,0-3.611-1.178,12.208,12.208,0,0,0-2.211.007c-.013.015-.054.927-.091,2.027s-.092,2.692-.123,3.537c-.075,2.09-.1,2.912-.173,5.045-.033,1-.086,2.505-.118,3.334s-.083,2.33-.114,3.334-.083,2.583-.118,3.508-.1,2.64-.138,3.811c-.076,2.151-.1,2.307-.3,2.307-.108,0-.126-.174-.2-1.943-.059-1.467-.1-2.539-.32-7.481-.047-1.084-.1-2.324-.117-2.755s-.056-1.3-.087-1.943-.083-1.838-.116-2.668-.073-1.769-.088-2.088-.054-1.18-.085-1.914-.1-2.247-.146-3.363-.095-2.212-.1-2.436l-.014-.406-.464-.047a9.508,9.508,0,0,0-3.564.4,8.147,8.147,0,0,0-1.686.857l-.264.192,1,4.981c.548,2.739,1.678,8.381,2.511,12.537s1.514,7.634,1.514,7.729c0,.22-.144.283-.3.13-.1-.1-1.036-3.288-3.179-10.862-.23-.813-.492-1.727-.582-2.03s-.848-2.957-1.686-5.9-1.539-5.373-1.56-5.407a7.378,7.378,0,0,0-2.506,1.115,9.172,9.172,0,0,0-2.4,2.336l-.239.343,2.861,5.973c1.573,3.285,3.043,6.351,3.265,6.814s.592,1.232.821,1.711l.75,1.566.944,1.972,1.023,2.14a6.461,6.461,0,0,1,.427,1.042c.018.244-.148.271-.342.056-.081-.09-.788-1.26-1.57-2.6l-3.728-6.379c-1.268-2.169-3.121-5.339-4.117-7.046s-1.831-3.124-1.855-3.15a8.791,8.791,0,0,0-1.779,2.085,7.246,7.246,0,0,0-1.15,2.922l-.04.378,4.163,5.1,6.213,7.617c1.191,1.461,2.043,2.555,2.033,2.61a.185.185,0,0,1-.162.111c-.162.019-.635-.449-6.5-6.425-4.709-4.8-6.367-6.466-6.4-6.43a12.755,12.755,0,0,0-.7,2.487,12.721,12.721,0,0,0,.027,3.537,1.611,1.611,0,0,0,.256.736c.117.115,1.113.878,6.108,4.678l1.688,1.284.068.58c.037.319.107.932.156,1.363s.125,1.083.17,1.45.149,1.293.233,2.059.164,1.45.178,1.522l.026.13h9.524l.339.37a2.419,2.419,0,0,0,1.976.946,1.731,1.731,0,0,0,.837-.213Z" transform="translate(-67.291 -71.579)" fill="#fdef00"/></g></g></svg>