<svg xmlns="http://www.w3.org/2000/svg" width="61.436" height="48.873" viewBox="0 0 61.436 48.873"><g transform="translate(-12.223 -26.383)"><path d="M-670.443-18451.164a3.063,3.063,0,0,1-.529-.316v-.686a1.453,1.453,0,0,0,.687.264.652.652,0,0,0,.636-.479,1.658,1.658,0,0,0-.158-.951,13.57,13.57,0,0,1-1.008-1.959,2.824,2.824,0,0,1-.162-1.486,1.436,1.436,0,0,1,1.008-.9,1.165,1.165,0,0,1,.9.213v.637a1.405,1.405,0,0,0-.687-.162c-.214.055-.529.264-.478.584a2.216,2.216,0,0,0,.265,1.008c.162.264.85,1.7.9,1.852a2.274,2.274,0,0,1,.162,1.166,1.228,1.228,0,0,1-.636,1.008,1.392,1.392,0,0,1-.726.229A.674.674,0,0,1-670.443-18451.164Zm39.683-.738a4.726,4.726,0,0,1-.687-2.646,6.476,6.476,0,0,1,.107-1.113,3.667,3.667,0,0,1,.738-1.594,1.882,1.882,0,0,1,1.221-.473,1.971,1.971,0,0,1,1.114.473v.8s-.269-.213-.376-.32a1.679,1.679,0,0,0-.738-.266c-.794,0-1.063.795-1.165,1.217a9.488,9.488,0,0,0-.107,2.066,2.1,2.1,0,0,0,.743,1.7.7.7,0,0,0,.529.158.6.6,0,0,0,.371-.107v-1.959h-.636v-.691h1.323v3.129s-.214.107-.371.209a3.024,3.024,0,0,1-.687.162c-.021,0-.062.006-.119.006A1.633,1.633,0,0,1-630.76-18451.9Zm-14.518.371a4.184,4.184,0,0,1-.794-2.172,6.687,6.687,0,0,1,.158-2.281,2.661,2.661,0,0,1,.8-1.48.874.874,0,0,1,.687-.213,1.974,1.974,0,0,1,.9.32v.742a1.314,1.314,0,0,0-.794-.375.771.771,0,0,0-.636.426,4.848,4.848,0,0,0-.32,2.016,5.859,5.859,0,0,0,.269,2.061c.1.266.265.586.631.586a.982.982,0,0,0,.743-.264.855.855,0,0,1,.214-.158v.793a1.853,1.853,0,0,1-.956.371A1.029,1.029,0,0,1-645.278-18451.531Zm-15.048-.051a3.627,3.627,0,0,1-.794-2.172,6.5,6.5,0,0,1,.158-2.23,2.681,2.681,0,0,1,.8-1.535,1.016,1.016,0,0,1,.687-.158,1.974,1.974,0,0,1,.9.32v.742a1.314,1.314,0,0,0-.794-.375.694.694,0,0,0-.636.422,4.757,4.757,0,0,0-.32,1.963,4.513,4.513,0,0,0,.265,2.066c.107.266.265.637.636.637a1.272,1.272,0,0,0,.743-.264l.214-.215v.85a1.853,1.853,0,0,1-.956.371A1.076,1.076,0,0,1-660.326-18451.582Zm-4.4-.371a5.369,5.369,0,0,1-.529-2.437,5.36,5.36,0,0,1,.529-2.545,1.433,1.433,0,0,1,1.114-.742,1.254,1.254,0,0,1,1.11.688,5.057,5.057,0,0,1,.585,2.492,6.269,6.269,0,0,1-.478,2.545c-.265.316-.687.793-1.165.793A1.457,1.457,0,0,1-664.723-18451.953Zm.529-4.5a8.35,8.35,0,0,0-.265,2.01,8.359,8.359,0,0,0,.32,2.066c.107.215.316.479.529.479.265,0,.423-.264.58-.479a5.141,5.141,0,0,0,.265-2.066,6.053,6.053,0,0,0-.265-2.01c-.107-.158-.265-.479-.58-.479C-663.873-18456.936-664.036-18456.777-664.194-18456.457Zm36.985,5.191v-6.361h2.173v.742h-1.379v1.908h1.272v.744h-1.272v2.172h1.481v.795Zm-13.353,0v-2.811h-1.272v2.754h-.743v-6.3h.743v2.809h1.272v-2.809h.743v6.361Zm-9.165-.057,1.11-3.338-.952-2.967h.794l.585,1.908.636-1.908h.845l-1.008,2.967,1.165,3.338h-.845l-.743-2.225-.743,2.281Zm-3.023.057v-6.361h2.224v.742h-1.43v1.908h1.272v.744h-1.272v2.172h1.486v.795Zm-2.967,0s-.952-2.754-1.059-2.916c-.056-.051-.056-.051-.107,0v2.859h-.743v-6.355h.743v2.809c.051,0,.051.051.107-.051.265-.8.85-2.758.85-2.758h.794l-1.008,3.072,1.216,3.34Zm22.676-.057s-1.323-3.547-1.323-3.654c-.051-.051-.107,0-.107.057v3.6h-.743v-6.3h.636s1.221,3.395,1.272,3.5.158.107.158-.055v-3.445h.692v6.3Zm-3.6,0s-.1-.58-.265-1.322h-1.216c-.158.742-.265,1.322-.265,1.322h-.692l1.165-6.3h.8l1.216,6.3Zm-.952-4.447c0,.051-.214,1.217-.423,2.33h1c-.209-1.113-.422-2.223-.474-2.33,0-.045-.01-.062-.026-.062S-637.565-18455.8-637.594-18455.77Zm-29.882,4.447v-5.562h-1.008v-.742h2.753v.742h-.952v5.563Zm5.455-10.752a6.144,6.144,0,0,1-1.588-4.453,7.123,7.123,0,0,1,1.165-4.555,4.261,4.261,0,0,1,3.547-1.908,4.452,4.452,0,0,1,3.445,1.8,6.947,6.947,0,0,1,1.221,4.4,7.016,7.016,0,0,1-1.272,4.453,4.355,4.355,0,0,1-3.394,1.7A4.083,4.083,0,0,1-662.021-18462.074Zm1.644-7.686a8.132,8.132,0,0,0-.529,3.074,9.782,9.782,0,0,0,.529,2.809,1.481,1.481,0,0,0,1.43.846c1.008,0,1.165-.529,1.486-.9a5.387,5.387,0,0,0,.474-2.865,8.687,8.687,0,0,0-.422-2.859,1.558,1.558,0,0,0-1.537-.9A1.547,1.547,0,0,0-660.377-18469.76Zm29.037,7.629a5.834,5.834,0,0,1-1.644-4.447c0-2.652.636-3.711,1.216-4.5a4.11,4.11,0,0,1,3.5-1.908,4.348,4.348,0,0,1,3.44,1.8,6.6,6.6,0,0,1,1.221,4.346,7.093,7.093,0,0,1-1.272,4.5,4.494,4.494,0,0,1-3.389,1.645A3.932,3.932,0,0,1-631.34-18462.131Zm1.588-7.629a7.87,7.87,0,0,0-.478,3.023,8.624,8.624,0,0,0,.529,2.859,1.375,1.375,0,0,0,1.435.846c1,0,1.11-.529,1.43-.9a5.528,5.528,0,0,0,.474-2.865,7.166,7.166,0,0,0-.422-2.859,1.569,1.569,0,0,0-1.481-.957A1.626,1.626,0,0,0-629.753-18469.76Zm-19.551,3.445c-.107-.213-.214-.158-.214.051v5.354l-2.7.107v-11.924h2.7v5.4s.107.215.214-.051c.158-.264,2.753-5.354,2.753-5.354l2.758-.055-2.967,5.674,3.654,6.2-2.911.107S-649.2-18466.156-649.3-18466.314Zm-20.238,5.512v-9.963l-2.7.055v-2.07h8.106v2.07l-2.7.051v9.857Zm29.988-.107v-5.354l-3.287-6.518h2.86l1.806,3.551,1.481-3.551h2.809l-2.916,6.467v5.4Zm20.823-16.736a.3.3,0,0,1-.209-.057c-.107-.051-.163-.051-.265-.1-.163-.057-.371-.107-.534-.162-.265-.053-.529-.107-.738-.158-.107-.051-.265-.107-.371-.158a1.385,1.385,0,0,0-.478-.057c-.209-.1-.371-.156-.58-.264-.107-.051-.269,0-.427-.051a1.956,1.956,0,0,1-.474-.215c-.265-.105-.585-.105-.85-.213l-.478-.158a2.254,2.254,0,0,0-.265-.051c-.107,0-.158.051-.265,0-.158,0-.214-.107-.371-.162-.051,0-.158-.051-.214-.051-.158-.051-.367-.107-.525-.158h-.269c-.107-.057-.158-.057-.265-.107a.689.689,0,0,1-.316-.051,1.914,1.914,0,0,1-.529-.162c-.32-.051-.692-.107-1.008-.158a.8.8,0,0,1-.265-.107c-.158,0-.265-.051-.427-.051-.051-.055-.051-.055-.051-.105h.051v-.057c-.051.057-.1.057-.209.057h-.371c-.056,0-.158-.057-.214-.057h-.209c-.107-.051-.162-.051-.265-.1a1.717,1.717,0,0,1-.534-.057c-.209-.051-.371-.158-.58-.213h-.687a1.042,1.042,0,0,0-.371-.1,2.127,2.127,0,0,0-.585-.107h-.371l-.794-.158c-.32-.055-.687-.107-1.059-.162a1.187,1.187,0,0,1-.427-.107c-.158,0-.265.057-.371.057s-.265-.057-.367-.057c-.214-.051-.427-.051-.585-.1-.051-.057-.051,0-.051-.057a1.68,1.68,0,0,1-.534,0h-.474c-.265,0-.478-.1-.743-.1-.265-.055-.585,0-.9-.055-.158,0-.265-.057-.423-.057a2.281,2.281,0,0,0-.585-.051,5.982,5.982,0,0,1-.952-.051c-.158,0-.371-.057-.529-.057h-.32c-.107,0-.214-.051-.316-.051a1.521,1.521,0,0,0-.478.051.494.494,0,0,0-.265-.051h-.32a.565.565,0,0,1-.265-.055.464.464,0,0,1-.265.055c-.158,0-.209-.107-.371-.107a.312.312,0,0,1-.209.053h-.214c-.051,0-.107.055-.214.055-.158,0-.316-.055-.474-.055h-.636c-.529,0-1.114.055-1.644.055-.214,0-.371-.055-.585-.055a1.4,1.4,0,0,1-.474.055.663.663,0,0,1-.32-.055.645.645,0,0,1-.316.055.663.663,0,0,1-.32-.055,1,1,0,0,1-.422.055c-.214,0-.422-.055-.636-.055a3.88,3.88,0,0,1-.794.055.9.9,0,0,1-.316,0,.929.929,0,0,0-.32,0c-.265,0-.529.051-.794.051a.97.97,0,0,0-.371.057c-.158,0-.371.051-.529.051a4.2,4.2,0,0,0-.8,0c-.209,0-.474.107-.687.107a1.649,1.649,0,0,0-.529,0c-.158,0-.265.1-.422.1a.77.77,0,0,1-.371.055c-.636.107.371.637.529.744a1.92,1.92,0,0,1,.585.264c.158,0,.265.051.367.051a1.092,1.092,0,0,1,.265.164,3.068,3.068,0,0,1,.371.1,3.824,3.824,0,0,1,.794.428,1.109,1.109,0,0,1,.269.156c.1.057.1.158.158.266,0,.051.051.107.107.162a2.35,2.35,0,0,1-.107.58c-.056.107-.265.051-.371.051a.642.642,0,0,0-.32.057c-.158,0-.316-.057-.474-.057h-.214c-.107-.051-.158-.051-.265-.1a3.1,3.1,0,0,0-.636-.107,4.969,4.969,0,0,1-.952-.32c-.107-.051-.32-.051-.427-.1h-.158a2.935,2.935,0,0,0-.687-.055c-.265-.057-.529-.158-.8-.215-.158,0-.265.057-.367.057a.782.782,0,0,1-.371-.158h-.32c-.107-.057-.158-.107-.265-.107-.214-.055-.422-.055-.636-.105a.689.689,0,0,1-.316.051c-.056,0-.162-.051-.265-.051-.162,0-.32.051-.427,0a1.182,1.182,0,0,1-.423-.266c-.265-.107-1.008-.213-1.114-.529a.587.587,0,0,1-.1-.27,1.024,1.024,0,0,1-.162-.687c0-.156.107-.264.214-.422.051-.107.051-.162.107-.264l.158-.158a2.437,2.437,0,0,0,.265-.371c.107-.107.158-.266.32-.373.107-.162.265-.162.422-.264.107-.107.214-.158.265-.266.107-.055.158-.105.265-.162a4.54,4.54,0,0,0,.371-.264c.051-.051.158-.107.214-.158a2.808,2.808,0,0,1,.474-.32l.265-.26c.107-.057.214-.162.32-.215.107-.105.214-.156.265-.264.051-.057.158-.057.214-.107l.158-.158a1.591,1.591,0,0,0,.422-.213,2.757,2.757,0,0,0,.585-.529c.422-.213.845-.479,1.272-.742a5.838,5.838,0,0,1,.58-.266.393.393,0,0,0,.214-.105c.158-.053.316-.158.529-.215.371-.158.794-.209,1.165-.367a3.419,3.419,0,0,0,.422.158,2.771,2.771,0,0,1,.636.953c0,.105-.214.371-.265.477-.158.158-.423.158-.58.266a1.746,1.746,0,0,0-.534.264,5.943,5.943,0,0,0-.529.529c-.1.107-.265.107-.371.215a3.649,3.649,0,0,0-.474.371c-.107.107-.478.209-.478.371h.371c.107-.051.265,0,.422,0h.32a.582.582,0,0,1,.422.051h.32a.2.2,0,0,0,.158-.051h.209a.432.432,0,0,1,.265-.107c.107-.055.269,0,.371,0a2.918,2.918,0,0,1,.692,0,1.244,1.244,0,0,1,.636-.105h.58c.162-.107.478,0,.692,0,.1,0,.209-.051.316-.051h.422c.107,0,.214.051.32.051.371,0,.743.051,1.11.051,0,0,.107,0,.107-.051.265,0,.478.051.743.051a.416.416,0,0,1,.214-.051c.158-.051.422.051.58.051s.269.055.478.055a.315.315,0,0,1,.214-.055h1.852c.158-.1.529.055.743.055h.214a.444.444,0,0,0,.265.057.42.42,0,0,1,.265.051h.474a.708.708,0,0,1,.32.051h.636a1.522,1.522,0,0,0,.529.057c.158,0,.371.051.529.051.371,0,.636.107,1.008.107a.752.752,0,0,1,.478.055,2.245,2.245,0,0,1,.58.051c.158,0,.32.107.478.107.158-.107.687.051.845.051a1.731,1.731,0,0,0,.534.057c.265.051.58.1.845.156h.371c.158,0,.32.053.478.053a1.376,1.376,0,0,1,.636.105.982.982,0,0,1,.371.057,1.472,1.472,0,0,1,.371.1h.529a1.227,1.227,0,0,0,.371.107c.158,0,.367.051.529.051.107.055.209.055.316.111a1.073,1.073,0,0,1,.371.051,2.127,2.127,0,0,1,.585.107c.209.051.422.051.58.1.32.057.585.111.85.162h.051a.334.334,0,0,1,.214.051c.107-.051.265,0,.371,0a.3.3,0,0,0,.209.057.786.786,0,0,1,.32.1c.107,0,.265.057.371.057a1.41,1.41,0,0,0,.371.105c.371.107.738.107,1.11.209.107.107.32.107.478.164.265.051.636.156.9.209.107.055.158.055.214.105.209.057.422.057.636.107.1.051.158.051.209.107a.708.708,0,0,1,.32.051.537.537,0,0,1,.371.213.925.925,0,0,1,.371.107c.158.051.371.051.529.105.316.107.58.266.9.373.209.051.422.1.58.156l.32.158c.265.107.529.158.794.266a2.69,2.69,0,0,0,.371.158c.107.055.265.055.371.162a2.19,2.19,0,0,1,.474.26c.107,0,.163.055.269.055.051.057.158.107.209.158a1.83,1.83,0,0,1,.692.371.416.416,0,0,1,.1.215.159.159,0,0,1,.056.105c.051.107.209.266.209.373a.557.557,0,0,1-.422.473c-.107.057-.158.107-.265.107a.489.489,0,0,1-.139.021A1.194,1.194,0,0,1-618.73-18477.646Zm-34.018-7.053h.056Zm-26.126-1.691a.544.544,0,0,1-.107-.477,1.967,1.967,0,0,1,.214-.582,4.189,4.189,0,0,1,.9-.533c.107-.051.158-.1.265-.1.056-.057.158-.057.214-.107.316-.162.636-.479,1.008-.479a1.7,1.7,0,0,1,.422-.264,3.449,3.449,0,0,0,.423-.107,2.657,2.657,0,0,1,.585-.209,1.96,1.96,0,0,1,.371-.213c.051-.057.1-.057.158-.107a.494.494,0,0,1,.265-.051,5.692,5.692,0,0,0,.529-.213,4.283,4.283,0,0,1,.585-.215,2.056,2.056,0,0,0,.474-.264c.107-.051.265-.051.427-.107.107,0,.209-.051.316-.051.107-.051.214-.051.265-.107a1.616,1.616,0,0,1,.529-.158.472.472,0,0,1,.265-.055,2.037,2.037,0,0,1,.478-.209c.107,0,.158-.057.214-.057a.494.494,0,0,1,.265-.051.8.8,0,0,1,.316-.105,1.74,1.74,0,0,1,.747-.215,1.323,1.323,0,0,1,.845-.264c.056,0,.163-.057.214-.057a6.545,6.545,0,0,1,.687-.264h.32a.425.425,0,0,0,.214-.051h.158a2.734,2.734,0,0,1,.636-.215h.158c0-.051.051-.051.107-.051h.051s-.051.051,0,.051.107-.051.163-.105a2.23,2.23,0,0,1,.631-.158.208.208,0,0,1,.162-.051.851.851,0,0,1,.371-.057c.1,0,.209-.051.316-.051a.307.307,0,0,1,.214-.057.406.406,0,0,1,.265-.051,2.254,2.254,0,0,1,.265-.051h.214a.184.184,0,0,1,.158-.055.185.185,0,0,0,.158-.057,1.283,1.283,0,0,1,.422-.1.746.746,0,0,1,.371-.057c.056,0,.107-.051.163-.051h.265a.2.2,0,0,1,.158-.051h.214a.855.855,0,0,1,.529-.162.321.321,0,0,1,.209-.051c.056-.057.163,0,.269,0a1.84,1.84,0,0,1,.529-.158,2.22,2.22,0,0,1,.636-.057.2.2,0,0,0,.158-.051,1.832,1.832,0,0,1,.58-.162h.214c.214-.158.478-.107.794-.107a.912.912,0,0,1,.529-.1.555.555,0,0,1,.269-.057h.158a.784.784,0,0,1,.371-.1h.107a.636.636,0,0,1,.316-.055h.107a.746.746,0,0,1,.371-.057h.158c.051,0,.107-.051.158-.051h.214a1.392,1.392,0,0,1,.636-.158c.107,0,.214.051.316.051a1.193,1.193,0,0,1,.743-.158,1.432,1.432,0,0,1,.478-.055c.158-.1.214-.051.371,0h.371a1.015,1.015,0,0,1,.423-.1.642.642,0,0,1,.32-.057h.158c.209-.158.58-.1.845-.1h.163c.051-.057.209-.057.316-.057a2.654,2.654,0,0,1,.636,0c.051-.051.107-.051.214-.051a.878.878,0,0,1,.371-.055h.1c.162-.107.427-.053.585-.053h.214c.1-.055.209,0,.265,0a1,1,0,0,1,.371-.055.689.689,0,0,1,.316-.051,2.219,2.219,0,0,1,.636-.057c.051.057.107.057.214.057.107-.107.474-.057.636-.057a2.221,2.221,0,0,1,.58,0h.585c.1,0,.158-.051.209-.051a2.6,2.6,0,0,1,.269.051,2.2,2.2,0,0,0,.58.057.451.451,0,0,1,.265-.057h.158a1.085,1.085,0,0,1,.427-.051c.107-.051.265.051.371.051h.422c.107,0,.158-.051.265-.051.158,0,.371.107.585.107a.617.617,0,0,1,.316-.057h.9c.265-.158.585,0,.85,0h.158c.107-.051.422.057.58.057a.3.3,0,0,0,.214-.057c.158-.051.265.057.423.057a1.073,1.073,0,0,1,.371.051c.163-.1.265,0,.427,0h.316c.107.055.265.055.371.107h.9c.214,0,.371.055.529.055l.956.158a11.489,11.489,0,0,0,1.323.051c.107-.051.529-.051.58-.209.056-.32-.423-.428-.529-.584-.051-.107-.158-.158-.209-.266l-.269-.264c-.051-.107-.1-.158-.158-.266a1.45,1.45,0,0,0-.371-.264c-.107-.107-.265-.158-.371-.266-.209-.162-.209-.428-.371-.637a1.574,1.574,0,0,0-.474-.371c-.214-.264-.427-.479-.636-.691-.056-.1-.056-.209-.107-.316a.776.776,0,0,1-.214-.479c.107-.1.427-.473.529-.473a2.438,2.438,0,0,1,.636-.057.546.546,0,0,0,.1.006,3.506,3.506,0,0,1,.636.264c.051.057.158.107.209.158.107.057.214.107.32.162a.945.945,0,0,0,.265.107l1.908,1.268a1.648,1.648,0,0,1,.529.27c.265.209.58.422.85.631a4.867,4.867,0,0,0,.422.27.767.767,0,0,0,.316.1.765.765,0,0,0,.214.215c.107.051.158.051.209.105a.726.726,0,0,1,.214.215,3.779,3.779,0,0,1,.529.367c.158.105.214.264.371.371.056.055.107.055.158.105.107.057.214.158.32.215.051,0,.107.051.158.051.107.107.158.213.265.264a4.588,4.588,0,0,0,.529.428,1.034,1.034,0,0,1,.32.209c.051.057.107.158.209.266.214.162.478.162.692.32l.158.314.158.158a2.365,2.365,0,0,0,.265.371,1.072,1.072,0,0,0,.32.371,3.637,3.637,0,0,1,.158.428.887.887,0,0,1,.265.367,1.312,1.312,0,0,1-.051,1.008c-.056.162-.056.371-.107.533-.158.26-.687.422-.952.58-.162.051-.32.266-.529.266a.917.917,0,0,1-.292,0,.671.671,0,0,0-.292,0c-.158,0-.265.105-.423.105-.107,0-.214-.105-.32-.105-.158,0-.265.105-.423.105h-.371c-.107,0-.214.107-.316.107a.611.611,0,0,0-.269.051,2.533,2.533,0,0,0-.58.158,2.391,2.391,0,0,1-.636,0,5.375,5.375,0,0,0-.9.213,2.476,2.476,0,0,0-.636,0,10,10,0,0,0-1.323.266c-.214.107-.427.162-.636.264a4.409,4.409,0,0,1-.9.107c-.214.051-.371.158-.585.213h-.371c-.209,0-.371.053-.58.053-.107,0-.214-.053-.371-.053a1.455,1.455,0,0,1-.478,0c-.158-.055-.107-.264-.107-.422a.75.75,0,0,1-.051-.479.723.723,0,0,1,.214-.213c.1-.158.1-.422.265-.58a1.123,1.123,0,0,1,.738-.27c.056,0,.107-.051.162-.051.1-.051.209-.158.316-.215a.8.8,0,0,0,.371-.1c.158-.055.265-.162.423-.213a1.8,1.8,0,0,0,.427-.107c.371-.158.794-.32,1.165-.479.158-.051.845-.314.794-.529,0-.105-.107-.105-.158-.158-.056,0-.107-.055-.214-.055a2.076,2.076,0,0,0-.585-.051c-.158,0-.316-.158-.474-.158a2.025,2.025,0,0,0-.585,0,2.779,2.779,0,0,1-.636-.107c-.107,0-.214-.051-.316-.051h-1.063c-.1-.055-.209-.055-.316-.107a4.867,4.867,0,0,1-.9-.105c-.214,0-.422-.057-.636-.057a8.159,8.159,0,0,0-1.114,0c-.158,0-.316-.051-.529-.051a.406.406,0,0,0-.265-.051h-.371c-.209,0-.371.051-.58.051-.107,0-.265-.051-.371-.051h-.85c-.158,0-.316.051-.478.051a.68.68,0,0,0-.316-.051,2.42,2.42,0,0,0-.636-.057h-.316c-.107.057-.265,0-.371,0s-.214.057-.32.057-.158-.057-.265-.057a8.185,8.185,0,0,0-1.114-.051h-.794c-.158,0-.316.051-.474.051s-.269-.051-.427-.051h-.474c-.163,0-.265.051-.371.051h-.269c-.209,0-.367.057-.529.057h-.316c-.107,0-.214.051-.32.051a2.615,2.615,0,0,0-.687-.051.679.679,0,0,0-.316.051h-.529c-.214.051-.427.051-.636.107h-.214c-.158,0-.316.051-.478.051h-1.059a2.719,2.719,0,0,1-.636.162,7.391,7.391,0,0,1-1.059.051c-.265,0-.529.107-.794.107-.214,0-.478.051-.692.051a.8.8,0,0,0-.316.107,1.874,1.874,0,0,0-.529.051.309.309,0,0,0-.214.055h-.371c-.158.057-.316.107-.423.158a.738.738,0,0,1-.32-.105.387.387,0,0,0-.209.055,7.66,7.66,0,0,0-1.059.209h-.32a1.224,1.224,0,0,1-.422.057,6.155,6.155,0,0,1-.9.213c-.158.051-.371,0-.529.051a1.187,1.187,0,0,0-.427.107c-.158,0-.316.051-.474.051-.107,0-.214.107-.32.107h-.265a.769.769,0,0,1-.371.055h-.316c-.162.051-.32.158-.529.209-.107.057-.269.057-.371.107-.056,0-.107.051-.163.051h-.209l-.636.162a.416.416,0,0,0-.214.051h-.371l-.316.158a3.841,3.841,0,0,0-.692.158c-.158,0-.265.111-.371.162h-.474a2,2,0,0,1-.529.107c-.32.051-.585.213-.9.264a.428.428,0,0,1-.269.051.905.905,0,0,1-.367.107,1.4,1.4,0,0,1-.427.051l-.636.162a2.324,2.324,0,0,1-.371.158.837.837,0,0,0-.265.107c-.158.051-.371,0-.529.107-.158,0-.265.1-.422.156l-.478.158c-.316.107-.636.158-.9.266a.775.775,0,0,1-.316.105c-.107.057-.163.107-.265.158h-.32l-.478.158c-.158.057-.316.213-.474.27-.162,0-.32.051-.478.051-.051.051-.107.051-.158.107a2.4,2.4,0,0,0-.585.213c-.209.051-.474.051-.687.1a4.653,4.653,0,0,0-.9.373c-.056,0-.107.055-.158.055a.341.341,0,0,1-.214.051,1.622,1.622,0,0,1-.507.1A.9.9,0,0,1-678.874-18486.391Z" transform="translate(691.225 18526.4)" fill="#fff"/></g></svg>