<svg xmlns="http://www.w3.org/2000/svg" width="115" height="59" viewBox="0 0 115 59"><g transform="translate(-1062 -2143)"><rect width="115" height="59" transform="translate(1062 2143)" fill="none"/><path d="M-3438-1797.541c0-5.224,6.5-9.459,14.521-9.459s14.52,4.235,14.52,9.459-6.5,9.459-14.52,9.459S-3438-1792.317-3438-1797.541Zm18.075.341c0,3.91-1.122,7.2-2.645,8.155l.028-.005c6.5-.338,11.625-4.164,11.625-8.832a6.926,6.926,0,0,0-1.628-4.363l-.012-.025c-.079,2.156-3.137,3.98-7.372,4.646C-3419.927-1797.484-3419.925-1797.343-3419.925-1797.2Zm-14.489-5.045a6.923,6.923,0,0,0-1.628,4.363c0,4.669,5.125,8.494,11.625,8.832l.028.005c-1.523-.954-2.645-4.245-2.645-8.155,0-.143,0-.284,0-.425-4.234-.666-7.293-2.489-7.371-4.645Zm10.935,10.257c1.165,0,2.115-2.425,2.167-5.465-.7.064-1.425.1-2.167.1s-1.467-.033-2.167-.1C-3425.6-1794.412-3424.645-1791.988-3423.479-1791.988Zm0-7.778c.693,0,1.367-.03,2.012-.087-.321-2.1-1.1-3.583-2.012-3.583s-1.691,1.482-2.013,3.583C-3424.847-1799.8-3424.173-1799.766-3423.479-1799.766Zm3.353-.244,0,0c3.012-.469,5.121-1.551,5.121-2.809,0-1.689-3.795-3.057-8.475-3.057s-8.476,1.368-8.476,3.057c0,1.258,2.109,2.34,5.121,2.809l0,0c.488-3.276,1.805-5.625,3.353-5.625S-3420.615-1803.287-3420.127-1800.01Zm56.219,2.469a7.229,7.229,0,0,1,7.229-7.229,7.23,7.23,0,0,1,7.23,7.229,7.229,7.229,0,0,1-7.23,7.23A7.229,7.229,0,0,1-3363.908-1797.541Zm3.194,0a4.333,4.333,0,0,0,4.035,4.579,4.334,4.334,0,0,0,4.038-4.579,4.334,4.334,0,0,0-4.038-4.579A4.333,4.333,0,0,0-3360.714-1797.541Zm-31.653,0a7.23,7.23,0,0,1,7.23-7.229,7.23,7.23,0,0,1,7.23,7.229,7.229,7.229,0,0,1-7.23,7.23A7.23,7.23,0,0,1-3392.367-1797.541Zm3.193,0a4.333,4.333,0,0,0,4.037,4.579,4.334,4.334,0,0,0,4.037-4.579,4.334,4.334,0,0,0-4.037-4.579A4.333,4.333,0,0,0-3389.173-1797.541Zm62.615,6.9-1.168-3.065,0,0h-5.582l0,0-1.169,3.065h-3.557l5.624-13.633h3.791l5.625,13.633Zm-3.961-5.369h1.915l-1.9-4.989h-.027l-1.9,4.989Zm-13.771,5.368v-11.118h-4.25v-2.514H-3337v2.513h-4.249v11.118Zm-26.618,0h-1.544v-5.176l-5.314-8.456h3.558l3.3,5.73,3.3-5.73h3.557l-5.314,8.456v5.177Zm-29.534,0v-11.118h-4.25v-2.514h11.546v2.513h-4.249v11.118Z" transform="translate(4500 3970.325)" fill="red"/></g></svg>